<svg width="32" height="26" viewBox="0 0 32 26" fill="none" xmlns="http://www.w3.org/2000/svg">
<path d="M16 25.6284C17.66 25.6284 19.25 25.2684 20.52 24.3584C21.69 23.5284 22.53 22.3784 23.24 21.3784C23.85 20.5084 24.51 19.5084 25.02 18.4184C25.5 18.2584 25.98 18.1184 26.47 18.0184C28.36 17.6084 29.73 17.7484 31.36 18.5284L31.7 17.8284C29.9 16.9784 28.39 16.8184 26.31 17.2684C26.01 17.3284 25.72 17.4084 25.43 17.4984C25.48 17.3784 25.52 17.2484 25.56 17.1284C26.67 13.7084 26.43 9.86838 24.9 6.86838C23.31 3.74838 20.02 1.21839 16.42 1.04839C15.84 0.778387 15.22 0.588387 14.61 0.438387C14.05 0.208387 13.48 0.0683818 12.74 0.0583818C11.64 -0.131618 10.58 0.178385 9.76996 0.468385C4.11996 2.50839 0.01 8.35838 0 14.3884C0 16.8884 0.629966 19.2184 1.83997 21.1184C3.16997 23.2084 5.19998 24.7384 7.41998 25.2984C8.50998 25.5784 9.52998 25.6084 10.48 25.3984C10.89 25.3084 11.3 25.1584 11.72 24.9684C13.07 25.3884 14.56 25.6584 16 25.6584V25.6284ZM23.95 18.8184C23.54 19.5584 23.07 20.2584 22.61 20.9284C21.94 21.8784 21.14 22.9584 20.08 23.7284C18.45 24.8984 16.19 25.0584 14.02 24.6984C19.05 24.0984 21.5 21.8484 22.25 19.5684C22.83 19.2984 23.4 19.0484 23.96 18.8184H23.95ZM10.59 24.5384C10.5 24.5684 10.41 24.5884 10.31 24.6084C9.49 24.7984 8.58 24.7684 7.62 24.5184C5.59 23.9984 3.73001 22.5984 2.51001 20.6784C1.38001 18.8984 0.789978 16.7184 0.789978 14.3584C0.789978 11.6184 1.69997 8.90839 3.21997 6.62839C1.71997 9.94839 1.78997 14.0484 3.40997 17.6284C4.51997 20.0684 6.20999 22.0684 8.29999 23.4084C8.93999 23.8184 9.71996 24.2084 10.58 24.5484L10.59 24.5384ZM13.94 22.4084C13.55 22.7784 13.15 23.1184 12.72 23.4284C12.35 23.6984 12 23.9184 11.65 24.0984C10.52 23.7184 9.50997 23.2384 8.71997 22.7384C6.77997 21.4984 5.15 19.5684 4.12 17.2984C2.56 13.8684 2.50999 9.95838 3.98999 6.81838C5.30999 3.99838 8.40997 0.758382 12.66 0.808382C13.21 0.908382 13.78 1.01838 14.35 1.14838C14.38 1.15838 14.4 1.16838 14.43 1.17838C13.97 1.27838 13.5 1.40838 13.04 1.59838C10.72 2.52838 8.94998 4.47839 7.91998 7.21839C6.51998 10.9484 6.71 15.8384 8.38 19.1084C9.08 20.4684 9.85 21.3384 10.81 21.8484C11.58 22.2584 12.56 22.4384 13.69 22.4184C13.77 22.4184 13.86 22.4184 13.94 22.4184V22.4084ZM21.18 20.0684C20.19 21.9184 17.78 23.5984 13.28 23.9884C13.95 23.4884 14.58 22.9184 15.15 22.2784C17.24 21.9184 19.23 20.9884 21.17 20.0684H21.18ZM14.75 21.5484C14.39 21.5984 14.03 21.6284 13.66 21.6384C12.66 21.6584 11.82 21.4984 11.17 21.1584C10.36 20.7284 9.69001 19.9684 9.07001 18.7584C7.49001 15.6684 7.31995 11.0384 8.63995 7.49838C9.29995 5.73838 10.65 3.40839 13.32 2.32839C14.06 2.02839 14.8 1.86838 15.54 1.81838C16.62 2.63838 17.36 4.11839 17.81 6.32839C18.49 9.73839 18.47 12.8984 17.73 15.7284C17.15 17.9584 16.12 19.9484 14.75 21.5484ZM21.59 19.0084C21.36 19.1184 21.12 19.2284 20.89 19.3384C19.28 20.0984 17.63 20.8784 15.94 21.3084C17.09 19.7684 17.96 17.9384 18.48 15.9284C19.24 12.9884 19.27 9.70838 18.56 6.17838C18.23 4.54838 17.74 3.27839 17.08 2.32839C17.27 2.47839 17.45 2.63839 17.62 2.82839C19.19 4.57839 20.33 6.80839 21.03 9.43839C21.39 10.8284 21.63 12.3184 21.76 13.9984C21.83 14.9684 21.8 15.8784 21.76 16.8484C21.74 17.2484 21.73 17.6484 21.72 18.0484C21.72 18.3584 21.67 18.6884 21.59 19.0084ZM24.46 17.7884C23.79 18.0284 23.12 18.3084 22.46 18.6084C22.48 18.4284 22.5 18.2384 22.5 18.0584C22.5 17.6584 22.52 17.2684 22.54 16.8684C22.58 15.9184 22.62 14.9384 22.54 13.9284C22.41 12.1984 22.17 10.6684 21.79 9.22838C21.07 6.46838 19.86 4.13839 18.21 2.29839C18.13 2.20839 18.04 2.11838 17.96 2.03838C20.63 2.72838 22.97 4.76839 24.2 7.18839C25.63 10.0084 25.86 13.6184 24.81 16.8484C24.71 17.1684 24.59 17.4784 24.46 17.7784V17.7884Z" fill="url(#paint0_linear_1_2)"/>
<defs>
<linearGradient id="paint0_linear_1_2" x1="31.6814" y1="12.4519" x2="-0.0183504" y2="12.3935" gradientUnits="userSpaceOnUse">
<stop stop-color="#FEDC31"/>
<stop offset="0.09" stop-color="#FDC347"/>
<stop offset="0.27" stop-color="#FC8682"/>
<stop offset="0.52" stop-color="#FA2CD7"/>
<stop offset="0.76" stop-color="#987CDB"/>
<stop offset="1" stop-color="#33D0E0"/>
</linearGradient>
</defs>
</svg>
