<svg width="199" height="89" viewBox="0 0 199 89" fill="none" xmlns="http://www.w3.org/2000/svg">
<path d="M172.64 65.78V76.18H178.84V77.49H171.08V65.78H172.64Z" fill="#2C3446"/>
<path d="M177.86 67.09V65.78H187.23V67.09H183.32V77.49H181.76V67.09H177.86Z" fill="#2C3446"/>
<path d="M192.96 65.78C194.77 65.78 196.15 66.24 197.13 67.16C198.1 68.08 198.59 69.48 198.59 71.36C198.59 72.34 198.48 73.22 198.26 73.98C198.04 74.74 197.7 75.38 197.24 75.9C196.78 76.42 196.2 76.82 195.49 77.09C194.78 77.36 193.94 77.5 192.96 77.5H188.94V65.79H192.96V65.78ZM193.09 76.18C193.26 76.18 193.48 76.17 193.75 76.14C194.02 76.11 194.29 76.05 194.59 75.94C194.88 75.84 195.18 75.69 195.47 75.49C195.76 75.29 196.02 75.03 196.25 74.69C196.48 74.35 196.67 73.93 196.82 73.42C196.97 72.91 197.04 72.3 197.04 71.57C197.04 70.84 196.97 70.24 196.83 69.69C196.69 69.14 196.47 68.67 196.16 68.28C195.85 67.89 195.45 67.6 194.95 67.39C194.46 67.19 193.85 67.09 193.13 67.09H190.5V76.18H193.09Z" fill="#2C3446"/>
<path d="M143.96 16.41C146.82 17.45 149.37 19.16 151.81 20.9C152 20.4 152.21 19.96 152.46 19.6C153.22 18.47 154.28 17.9 155.66 17.9C156.38 17.9 157.37 18.16 158.6 18.67L161.85 11.21C160.01 10.25 158.31 9.77 156.76 9.77C155.21 9.77 154.03 10.13 153.03 10.86C152.02 11.59 151.04 12.92 150.1 14.86V10.38H140.26V15.46C141.54 15.66 142.77 15.97 143.95 16.4L143.96 16.41Z" fill="#2C3446"/>
<path d="M150.83 31.44V28.56C150.83 25.65 151.08 23.37 151.56 21.69C149.09 19.93 146.53 18.18 143.69 17.15C142.59 16.75 141.45 16.46 140.27 16.27V30.55C143.8 30.39 147.37 30.69 150.83 31.44Z" fill="#2C3446"/>
<path d="M140.27 31.33V37.72H150.83V32.24C147.37 31.48 143.8 31.17 140.27 31.33Z" fill="#2C3446"/>
<path d="M147.52 62.29C147.61 60.5 148 59.18 148.7 58.34C149.5 57.37 150.57 56.89 151.92 56.89C153.27 56.89 154.4 57.42 155.33 58.47C155.6 58.77 155.81 59.12 156 59.5C157.87 58.65 159.72 57.66 161.55 56.52L162.35 56.02C164.06 54.94 165.54 54 166.97 53.34L167.24 53.93V49.92H157.4V53.96C156.2 52.3 154.9 51.1 153.51 50.38C152.12 49.66 150.36 49.3 148.23 49.3C144.89 49.3 142.19 50.42 140.12 52.64C138.05 54.87 137.02 58.11 137.02 62.37C137.02 62.51 137.02 62.64 137.03 62.78C140.43 63.19 143.97 63.02 147.53 62.29H147.52Z" fill="url(#paint0_linear_2_2)"/>
<path d="M167.23 54.08C165.86 54.72 164.42 55.63 162.76 56.68L161.96 57.18C160.1 58.35 158.21 59.36 156.3 60.22C156.57 61.02 156.72 61.95 156.72 63.03C156.72 65.02 156.28 66.51 155.39 67.49C154.5 68.48 153.41 68.97 152.1 68.97C150.72 68.97 149.61 68.49 148.77 67.54C147.93 66.59 147.5 65.13 147.5 63.15C147.5 63.12 147.5 63.1 147.5 63.07C143.96 63.78 140.44 63.94 137.05 63.55C137.21 66.72 137.99 69.32 139.42 71.33C141.68 74.52 144.64 76.12 148.3 76.12C150.18 76.12 151.92 75.69 153.54 74.83C154.57 74.28 155.61 73.4 156.64 72.18V76.32C156.64 78.33 156.27 79.73 155.52 80.54C154.77 81.35 153.64 81.75 152.12 81.75C150.95 81.75 149.98 81.48 149.2 80.95C148.67 80.59 148.27 79.94 148.01 78.99L137.81 77.83C137.78 78.41 137.76 78.88 137.76 79.22C137.76 81.98 138.79 84.19 140.85 85.83C142.91 87.48 146.69 88.3 152.2 88.3C154.61 88.3 156.75 88.09 158.62 87.66C160.49 87.23 162.03 86.54 163.24 85.58C164.45 84.62 165.43 83.36 166.16 81.81C166.89 80.26 167.26 78.62 167.26 76.91L167.23 75.7V54.06V54.08Z" fill="url(#paint1_linear_2_2)"/>
<path d="M182.61 61.07C180.95 61.07 179.36 60.71 178.09 59.8C176.92 58.97 176.08 57.82 175.37 56.82C174.76 55.95 174.1 54.95 173.59 53.86C173.11 53.7 172.63 53.56 172.14 53.46C170.25 53.05 168.88 53.19 167.25 53.97L166.91 53.27C168.71 52.42 170.22 52.26 172.3 52.71C172.6 52.77 172.89 52.85 173.18 52.94C173.13 52.82 173.09 52.69 173.05 52.57C171.94 49.15 172.18 45.31 173.71 42.31C175.3 39.19 178.59 36.66 182.19 36.49C182.77 36.22 183.39 36.03 184 35.88C184.56 35.65 185.13 35.51 185.87 35.5C186.97 35.31 188.03 35.62 188.84 35.91C194.49 37.95 198.6 43.8 198.61 49.83C198.61 52.33 197.98 54.66 196.77 56.56C195.44 58.65 193.41 60.18 191.19 60.74C190.1 61.02 189.08 61.05 188.13 60.84C187.72 60.75 187.31 60.6 186.89 60.41C185.54 60.83 184.05 61.1 182.61 61.1V61.07ZM174.66 54.26C175.07 55 175.54 55.7 176 56.37C176.67 57.32 177.47 58.4 178.53 59.17C180.16 60.34 182.42 60.5 184.59 60.14C179.56 59.54 177.11 57.29 176.36 55.01C175.78 54.74 175.21 54.49 174.65 54.26H174.66ZM188.02 59.98C188.11 60.01 188.2 60.03 188.3 60.05C189.12 60.24 190.03 60.21 190.99 59.96C193.02 59.44 194.88 58.04 196.1 56.12C197.23 54.34 197.82 52.16 197.82 49.8C197.82 47.06 196.91 44.35 195.39 42.07C196.89 45.39 196.82 49.49 195.2 53.07C194.09 55.51 192.4 57.51 190.31 58.85C189.67 59.26 188.89 59.65 188.03 59.99L188.02 59.98ZM184.67 57.85C185.06 58.22 185.46 58.56 185.89 58.87C186.26 59.14 186.61 59.36 186.96 59.54C188.09 59.16 189.1 58.68 189.89 58.18C191.83 56.94 193.46 55.01 194.49 52.74C196.05 49.31 196.1 45.4 194.62 42.26C193.3 39.44 190.2 36.2 185.95 36.25C185.4 36.35 184.83 36.46 184.26 36.59C184.23 36.6 184.21 36.61 184.18 36.62C184.64 36.72 185.11 36.85 185.57 37.04C187.89 37.97 189.66 39.92 190.69 42.66C192.09 46.39 191.9 51.28 190.23 54.55C189.53 55.91 188.76 56.78 187.8 57.29C187.03 57.7 186.05 57.88 184.92 57.86C184.84 57.86 184.75 57.86 184.67 57.86V57.85ZM177.43 55.51C178.42 57.36 180.83 59.04 185.33 59.43C184.66 58.93 184.03 58.36 183.46 57.72C181.37 57.36 179.38 56.43 177.44 55.51H177.43ZM183.86 56.99C184.22 57.04 184.58 57.07 184.95 57.08C185.95 57.1 186.79 56.94 187.44 56.6C188.25 56.17 188.92 55.41 189.54 54.2C191.12 51.11 191.29 46.48 189.97 42.94C189.31 41.18 187.96 38.85 185.29 37.77C184.55 37.47 183.81 37.31 183.07 37.26C181.99 38.08 181.25 39.56 180.8 41.77C180.12 45.18 180.14 48.34 180.88 51.17C181.46 53.4 182.49 55.39 183.86 56.99ZM177.02 54.45C177.25 54.56 177.49 54.67 177.72 54.78C179.33 55.54 180.98 56.32 182.67 56.75C181.52 55.21 180.65 53.38 180.13 51.37C179.37 48.43 179.34 45.15 180.05 41.62C180.38 39.99 180.87 38.72 181.53 37.77C181.34 37.92 181.16 38.08 180.99 38.27C179.42 40.02 178.28 42.25 177.58 44.88C177.22 46.27 176.98 47.76 176.85 49.44C176.78 50.41 176.81 51.32 176.85 52.29C176.87 52.69 176.88 53.09 176.89 53.49C176.89 53.8 176.94 54.13 177.02 54.45ZM174.15 53.23C174.82 53.47 175.49 53.75 176.15 54.05C176.13 53.87 176.11 53.68 176.11 53.5C176.11 53.1 176.09 52.71 176.07 52.31C176.03 51.36 175.99 50.38 176.07 49.37C176.2 47.64 176.44 46.11 176.82 44.67C177.54 41.91 178.75 39.58 180.4 37.74C180.48 37.65 180.57 37.56 180.65 37.48C177.98 38.17 175.64 40.21 174.41 42.63C172.98 45.45 172.75 49.06 173.8 52.29C173.9 52.61 174.02 52.92 174.15 53.22V53.23Z" fill="url(#paint2_linear_2_2)"/>
<path d="M19.59 17.84C20.41 18.43 20.97 19.31 21.28 20.48L31.17 19.17C30.28 16.3 28.77 14.08 26.66 12.5C24.2 13.9 21.74 15.72 19.28 17.67C19.38 17.73 19.49 17.78 19.58 17.85L19.59 17.84Z" fill="#2C3446"/>
<path d="M10.48 23.89C10.56 21.66 11.08 19.96 12.08 18.82C13.16 17.58 14.56 16.96 16.3 16.96C17.14 16.96 17.87 17.08 18.5 17.31C20.95 15.35 23.45 13.5 25.99 12.03C23.65 10.54 20.32 9.78 15.99 9.78C12.79 9.78 10.16 10.2 8.11002 11.04C6.82002 11.57 5.56 12.38 4.34 13.47C3.12 14.56 2.15001 15.79 1.45001 17.16C0.490012 19.03 0 21.37 0 24.18C0 26.49 0.290005 28.41 0.880005 29.94C3.9 28.86 7.12 26.58 10.47 23.9L10.48 23.89Z" fill="#2C3446"/>
<path d="M19.62 30.26C18.68 30.96 17.52 31.32 16.15 31.32C14.5 31.32 13.14 30.74 12.07 29.57C11.07 28.48 10.55 26.92 10.48 24.9C7.26001 27.44 4.16001 29.59 1.20001 30.66C1.99001 32.29 3.08001 33.7 4.48001 34.91C5.88001 36.12 7.54001 36.99 9.48001 37.53C11.42 38.07 13.84 38.34 16.75 38.34C19.66 38.34 22.25 37.92 24.2 37.08C26.15 36.24 27.76 35.06 29.02 33.54C30.28 32.02 31.18 30.23 31.73 28.15L21.74 27.02C21.28 28.48 20.57 29.56 19.64 30.26H19.62Z" fill="#2C3446"/>
<path d="M46.5 14.37C47 14.94 47.52 15.48 48.05 16.02C49.18 16.07 50 16.31 50.48 16.77C50.95 17.22 51.2 17.98 51.26 19.01C54.39 21.67 57.84 23.89 61.56 25.64V19.82C61.56 18.53 61.3 17.18 60.79 15.77C60.27 14.36 59.57 13.26 58.67 12.49C57.4 11.38 55.8 10.64 53.89 10.29C51.98 9.93999 49.45 9.75999 46.3 9.75999C44.47 9.75999 42.76 9.88999 41.17 10.15C42.97 11.03 44.75 12.39 46.51 14.36L46.5 14.37Z" fill="#2C3446"/>
<path d="M43.79 16.82C44.53 16.35 45.6 16.09 46.97 16.03C46.62 15.66 46.26 15.27 45.92 14.89C43.91 12.63 41.87 11.2 39.81 10.42C38.6 10.69 37.6 11.03 36.84 11.45C35.5 12.19 34.47 13.06 33.75 14.06C33.03 15.06 32.49 16.44 32.11 18.19L42.16 19.24C42.57 18.06 43.12 17.25 43.79 16.82Z" fill="#2C3446"/>
<path d="M61.56 31.9V26.51C57.66 24.71 54.06 22.42 50.8 19.65C49.67 20.08 48.59 20.44 47.57 20.72C46.4 21.04 43.84 21.59 39.9 22.38C36.61 23.03 34.36 24.03 33.13 25.36C31.91 26.7 31.3 28.4 31.3 30.48C31.3 32.69 32.15 34.55 33.84 36.06C35.54 37.57 38.02 38.32 41.29 38.32C43.75 38.32 45.91 37.94 47.77 37.19C49.13 36.62 50.5 35.68 51.88 34.36C52 35.15 52.12 35.73 52.24 36.1C52.36 36.47 52.62 37 53.01 37.71H62.88C62.33 36.58 61.97 35.65 61.81 34.92C61.65 34.19 61.56 33.18 61.56 31.9ZM51.28 26.42C51.28 27.72 51.07 28.78 50.65 29.6C50.23 30.41 49.51 31.11 48.51 31.67C47.5 32.24 46.41 32.52 45.24 32.52C44.07 32.52 43.27 32.26 42.7 31.74C42.12 31.22 41.83 30.54 41.83 29.72C41.83 29 42.12 28.36 42.71 27.79C43.28 27.24 44.63 26.68 46.76 26.12C48.33 25.73 49.83 25.27 51.28 24.76V26.43V26.42Z" fill="#2C3446"/>
<path d="M74.79 14.29C72.85 12.89 70.87 11.55 68.83 10.34C67.33 9.45 65.81 8.63 64.25 7.88V26.82C67.56 28.14 71.08 29.12 74.79 29.76V14.29Z" fill="#2C3446"/>
<path d="M64.25 27.66V37.71H74.79V30.54C71.09 29.91 67.57 28.95 64.25 27.66Z" fill="#2C3446"/>
<path d="M69.23 9.67C71.13 10.8 72.98 12.04 74.79 13.33V0H64.25V7.00999C65.94 7.81999 67.6 8.71 69.23 9.67Z" fill="#2C3446"/>
<path d="M90.03 30.5C89.27 30.27 88.59 29.81 88.01 29.11C87.16 28.07 86.73 26.44 86.73 24.21C86.73 23.92 86.73 23.63 86.75 23.36C84.92 22.01 83.13 20.63 81.36 19.25C80.12 18.29 78.86 17.31 77.58 16.35C76.68 18.38 76.22 20.85 76.22 23.77C76.22 26.09 76.55 28.2 77.2 30.12C81.27 30.65 85.55 30.78 90.03 30.5Z" fill="#2C3446"/>
<path d="M81.84 18.64C83.48 19.91 85.14 21.19 86.83 22.45C86.99 20.97 87.37 19.86 87.98 19.12C88.81 18.11 89.83 17.6 91.05 17.6C92.44 17.6 93.6 18.13 94.51 19.18C95.42 20.24 95.88 21.83 95.88 23.98C95.88 25.67 95.65 27.01 95.19 28.03C96.13 28.57 97.09 29.06 98.06 29.54C100.93 28.93 103.71 27.91 106.42 26.7V0H95.8V13.07C94.77 11.97 93.58 11.15 92.25 10.6C90.92 10.05 89.43 9.78 87.79 9.78C84.43 9.78 81.66 10.98 79.49 13.38C78.88 14.05 78.37 14.81 77.93 15.64C79.25 16.64 80.55 17.64 81.83 18.64H81.84Z" fill="#2C3446"/>
<path d="M99.99 30.44C102.06 31.34 104.21 32.06 106.41 32.62V27.55C104.07 28.58 101.67 29.46 99.2 30.07C99.47 30.19 99.73 30.33 99.99 30.44Z" fill="#2C3446"/>
<path d="M96.8 29.78C96.13 29.44 95.47 29.09 94.82 28.71C94.73 28.85 94.64 28.98 94.53 29.1C94.1 29.61 93.61 29.99 93.07 30.25C93.97 30.16 94.88 30.06 95.8 29.94C96.13 29.9 96.46 29.84 96.8 29.78Z" fill="#2C3446"/>
<path d="M99.69 31.16C99.11 30.91 98.54 30.63 97.97 30.35C97.29 30.49 96.61 30.61 95.91 30.7C89.4 31.57 83.25 31.64 77.51 30.94C77.95 32.06 78.51 33.11 79.19 34.08C81.16 36.91 84.02 38.33 87.75 38.33C89.61 38.33 91.3 37.94 92.81 37.15C93.95 36.55 95.2 35.39 96.58 33.68V37.72H106.42V33.43C104.11 32.85 101.86 32.1 99.69 31.16Z" fill="#2C3446"/>
<path d="M123.96 33.46C125.93 33.14 127.91 32.69 129.83 32.24C131.91 31.76 134.07 31.26 136.22 30.94C137.04 30.82 137.87 30.73 138.7 30.66L128.34 29.71C127.69 30.53 127.07 31.11 126.51 31.43C125.58 31.94 124.6 32.2 123.57 32.2C121.93 32.2 120.61 31.61 119.59 30.42C118.87 29.6 118.41 28.34 118.22 26.66H139.29V25.48C139.29 21.88 138.7 18.95 137.51 16.71C137.38 16.47 137.24 16.23 137.1 16C134.1 15.97 130.84 16.53 127.29 17.68C127.98 18.57 128.42 19.89 128.59 21.65H118.23C118.23 21.65 118.23 21.59 118.24 21.56C117.06 22.17 115.87 22.79 114.72 23.4C112.43 24.61 110.11 25.84 107.74 26.95C108.04 28.79 108.65 30.46 109.56 31.95C109.9 32.5 110.26 33.02 110.65 33.49C115.06 34.16 119.57 34.16 123.94 33.46H123.96Z" fill="#2C3446"/>
<path d="M136.33 31.7C134.2 32.02 132.07 32.51 130 32.99C128.07 33.44 126.08 33.9 124.08 34.22C119.94 34.88 115.67 34.93 111.47 34.38C112.44 35.39 113.54 36.2 114.76 36.8C116.84 37.82 119.7 38.33 123.33 38.33C127.51 38.33 130.73 37.73 132.96 36.54C134.96 35.47 136.7 33.78 138.18 31.47C137.56 31.53 136.94 31.6 136.32 31.69L136.33 31.7Z" fill="#2C3446"/>
<path d="M114.38 22.7C115.7 22 117.06 21.29 118.41 20.6C118.62 19.48 118.97 18.6 119.47 17.96C120.47 16.64 121.8 15.98 123.47 15.98C124.77 15.98 125.83 16.35 126.68 17.06C130.25 15.86 133.55 15.26 136.6 15.22C135.49 13.69 134.07 12.46 132.33 11.55C130.06 10.37 126.96 9.77 123.03 9.77C118.19 9.77 114.4 11.09 111.65 13.73C108.9 16.37 107.53 19.83 107.53 24.1C107.53 24.8 107.57 25.47 107.64 26.13C109.92 25.06 112.16 23.87 114.37 22.7H114.38Z" fill="#2C3446"/>
<path d="M12.63 65.8C12.53 65.18 12.48 64.49 12.48 63.73C12.48 61.35 12.89 59.65 13.72 58.64C14.55 57.63 15.57 57.12 16.79 57.12C18.18 57.12 19.34 57.65 20.25 58.7C21.16 59.76 21.62 61.35 21.62 63.5C21.62 64.07 21.59 64.59 21.54 65.08C24.77 64.53 27.96 63.65 31.06 62.78C31.43 62.68 31.79 62.58 32.16 62.47V39.51H21.54V52.58C20.51 51.48 19.32 50.66 17.99 50.11C16.66 49.56 15.17 49.29 13.53 49.29C10.17 49.29 7.40001 50.49 5.23001 52.89C3.05001 55.29 1.95999 58.76 1.95999 63.28C1.95999 63.6 1.97999 63.92 1.98999 64.23C5.04999 65.27 8.59 65.78 12.63 65.79V65.8Z" fill="url(#paint3_linear_2_2)"/>
<path d="M31.26 63.54C28.06 64.43 24.78 65.34 21.42 65.89C21.21 67.06 20.83 67.97 20.27 68.62C19.37 69.67 18.26 70.19 16.91 70.19C15.65 70.19 14.6 69.67 13.75 68.63C13.32 68.1 13 67.42 12.78 66.59C12.75 66.59 12.72 66.59 12.69 66.59C8.66 66.59 5.13 66.07 2.03 65.06C2.28 68.35 3.24 71.2 4.91 73.61C6.88 76.44 9.74 77.86 13.47 77.86C15.33 77.86 17.02 77.47 18.53 76.68C19.67 76.08 20.92 74.92 22.3 73.21V77.25H32.14V63.3C31.84 63.38 31.54 63.47 31.25 63.55L31.26 63.54Z" fill="url(#paint4_linear_2_2)"/>
<path d="M56.46 62.38C57.3 62.63 58.15 62.89 59 63.13L63.93 49.91H53.57L50.45 60.73C52.48 61.17 54.49 61.78 56.46 62.38Z" fill="url(#paint5_linear_2_2)"/>
<path d="M42.67 60.18C43.73 60.06 44.78 60.03 45.82 60.08L42.66 49.91H31.57L36.39 61.36C38.46 60.86 40.56 60.43 42.67 60.18Z" fill="url(#paint6_linear_2_2)"/>
<path d="M56.24 63.13C54.2 62.51 52.22 61.92 50.24 61.49L48.33 68.11L46.08 60.88C44.99 60.82 43.89 60.83 42.77 60.96C40.74 61.2 38.72 61.61 36.71 62.09L43.09 77.23C42.56 78.69 41.91 79.7 41.14 80.27C40.37 80.84 39.37 81.12 38.13 81.12C36.27 81.12 34.59 80.88 33.07 80.4L33.9 87.71C37.07 88.12 39.41 88.33 40.92 88.33C44.65 88.33 47.43 87.51 49.26 85.86C50.55 84.69 51.82 82.44 53.06 79.11L58.74 63.87C57.9 63.63 57.07 63.38 56.24 63.13Z" fill="url(#paint7_linear_2_2)"/>
<path d="M64.91 64.48C73.75 65.71 83.13 63.02 87.94 61.31C89.29 60.83 90.63 60.3 91.96 59.77C91.66 58.44 91.25 57.26 90.7 56.22C89.51 53.97 87.78 52.26 85.51 51.07C83.24 49.89 80.14 49.29 76.21 49.29C71.37 49.29 67.58 50.61 64.83 53.25C62.09 55.89 60.71 59.34 60.71 63.6C62.1 63.96 63.5 64.27 64.91 64.47V64.48ZM72.65 57.48C73.65 56.16 74.98 55.5 76.65 55.5C78.1 55.5 79.26 55.94 80.15 56.81C81.04 57.68 81.58 59.13 81.79 61.16H71.43C71.6 59.53 72.01 58.3 72.64 57.48H72.65Z" fill="url(#paint8_linear_2_2)"/>
<path d="M88.21 62.04C83.33 63.78 73.81 66.51 64.81 65.25C63.45 65.06 62.09 64.76 60.75 64.42C60.86 67.09 61.53 69.44 62.78 71.46C64.15 73.68 65.87 75.3 67.96 76.32C70.05 77.34 72.9 77.85 76.53 77.85C80.71 77.85 83.93 77.25 86.16 76.06C88.4 74.87 90.31 72.9 91.89 70.16L81.53 69.21C80.88 70.03 80.26 70.61 79.7 70.93C78.77 71.44 77.79 71.7 76.76 71.7C75.12 71.7 73.8 71.11 72.78 69.92C72.06 69.1 71.6 67.84 71.41 66.16H92.48V64.98C92.48 63.36 92.35 61.88 92.11 60.54C90.82 61.05 89.51 61.57 88.2 62.04H88.21Z" fill="url(#paint9_linear_2_2)"/>
<path d="M104.24 39.52H93.73V46.65H104.24V39.52Z" fill="url(#paint10_linear_2_2)"/>
<path d="M104.24 55.67V49.91H93.73V59.06C97.13 57.7 100.6 56.37 104.24 55.67Z" fill="url(#paint11_linear_2_2)"/>
<path d="M93.73 59.9V77.23H104.24V56.47C100.61 57.18 97.13 58.54 93.73 59.9Z" fill="url(#paint12_linear_2_2)"/>
<path d="M110.5 55.99C109.31 55.93 108.15 55.96 106.99 56.07V77.24H117.5V64.12C117.5 61.63 117.9 59.91 118.69 58.95C118.99 58.59 119.32 58.29 119.69 58.07C116.7 57.02 113.64 56.17 110.5 55.99Z" fill="url(#paint13_linear_2_2)"/>
<path d="M110.54 55.21C114.07 55.4 117.47 56.41 120.77 57.62C121.09 57.54 121.43 57.5 121.79 57.5C122.94 57.5 123.84 57.86 124.48 58.57C124.64 58.75 124.78 58.96 124.9 59.21C128.08 60.46 131.36 61.73 134.71 62.41C135.14 62.5 135.57 62.57 136 62.63V59.87C136 56.27 135.18 53.6 133.53 51.88C131.89 50.16 129.61 49.29 126.7 49.29C124.55 49.29 122.72 49.68 121.22 50.46C119.72 51.24 118.24 52.54 116.78 54.36V49.91H106.99V55.28C108.15 55.17 109.34 55.14 110.54 55.21Z" fill="url(#paint14_linear_2_2)"/>
<path d="M134.56 63.17C131.36 62.52 128.25 61.35 125.23 60.17C125.36 60.75 125.43 61.42 125.43 62.21V77.24H135.99V63.43C135.51 63.36 135.03 63.28 134.55 63.18L134.56 63.17Z" fill="url(#paint15_linear_2_2)"/>
<defs>
<linearGradient id="paint0_linear_2_2" x1="0.420145" y1="53.45" x2="170.26" y2="56.63" gradientUnits="userSpaceOnUse">
<stop stop-color="#FEDC31"/>
<stop offset="0.09" stop-color="#FDC347"/>
<stop offset="0.27" stop-color="#FC8682"/>
<stop offset="0.52" stop-color="#FA2CD7"/>
<stop offset="0.76" stop-color="#987CDB"/>
<stop offset="1" stop-color="#33D0E0"/>
</linearGradient>
<linearGradient id="paint1_linear_2_2" x1="-1.60994" y1="68.19" x2="170.48" y2="71.41" gradientUnits="userSpaceOnUse">
<stop stop-color="#FEDC31"/>
<stop offset="0.09" stop-color="#FDC347"/>
<stop offset="0.27" stop-color="#FC8682"/>
<stop offset="0.52" stop-color="#FA2CD7"/>
<stop offset="0.76" stop-color="#987CDB"/>
<stop offset="1" stop-color="#33D0E0"/>
</linearGradient>
<linearGradient id="paint2_linear_2_2" x1="166.929" y1="47.8935" x2="198.628" y2="47.8351" gradientUnits="userSpaceOnUse">
<stop stop-color="#FEDC31"/>
<stop offset="0.09" stop-color="#FDC347"/>
<stop offset="0.27" stop-color="#FC8682"/>
<stop offset="0.52" stop-color="#FA2CD7"/>
<stop offset="0.76" stop-color="#987CDB"/>
<stop offset="1" stop-color="#33D0E0"/>
</linearGradient>
<linearGradient id="paint3_linear_2_2" x1="-1.61001" y1="52.22" x2="169.26" y2="55.41" gradientUnits="userSpaceOnUse">
<stop stop-color="#FEDC31"/>
<stop offset="0.09" stop-color="#FDC347"/>
<stop offset="0.27" stop-color="#FC8682"/>
<stop offset="0.52" stop-color="#FA2CD7"/>
<stop offset="0.76" stop-color="#987CDB"/>
<stop offset="1" stop-color="#33D0E0"/>
</linearGradient>
<linearGradient id="paint4_linear_2_2" x1="-1.85" y1="70.11" x2="169.95" y2="73.32" gradientUnits="userSpaceOnUse">
<stop stop-color="#FEDC31"/>
<stop offset="0.09" stop-color="#FDC347"/>
<stop offset="0.27" stop-color="#FC8682"/>
<stop offset="0.52" stop-color="#FA2CD7"/>
<stop offset="0.76" stop-color="#987CDB"/>
<stop offset="1" stop-color="#33D0E0"/>
</linearGradient>
<linearGradient id="paint5_linear_2_2" x1="36.93" y1="56.06" x2="107.69" y2="57.39" gradientUnits="userSpaceOnUse">
<stop stop-color="#FEDC31"/>
<stop offset="0.09" stop-color="#FDC347"/>
<stop offset="0.27" stop-color="#FC8682"/>
<stop offset="0.52" stop-color="#FA2CD7"/>
<stop offset="0.76" stop-color="#987CDB"/>
<stop offset="1" stop-color="#33D0E0"/>
</linearGradient>
<linearGradient id="paint6_linear_2_2" x1="16.67" y1="55.21" x2="93.63" y2="56.65" gradientUnits="userSpaceOnUse">
<stop stop-color="#FEDC31"/>
<stop offset="0.09" stop-color="#FDC347"/>
<stop offset="0.27" stop-color="#FC8682"/>
<stop offset="0.52" stop-color="#FA2CD7"/>
<stop offset="0.76" stop-color="#987CDB"/>
<stop offset="1" stop-color="#33D0E0"/>
</linearGradient>
<linearGradient id="paint7_linear_2_2" x1="7.21003" y1="73.91" x2="142.29" y2="76.44" gradientUnits="userSpaceOnUse">
<stop stop-color="#FEDC31"/>
<stop offset="0.09" stop-color="#FDC347"/>
<stop offset="0.27" stop-color="#FC8682"/>
<stop offset="0.52" stop-color="#FA2CD7"/>
<stop offset="0.76" stop-color="#987CDB"/>
<stop offset="1" stop-color="#33D0E0"/>
</linearGradient>
<linearGradient id="paint8_linear_2_2" x1="-0.440008" y1="55.67" x2="168.5" y2="58.83" gradientUnits="userSpaceOnUse">
<stop stop-color="#FEDC31"/>
<stop offset="0.09" stop-color="#FDC347"/>
<stop offset="0.27" stop-color="#FC8682"/>
<stop offset="0.52" stop-color="#FA2CD7"/>
<stop offset="0.76" stop-color="#987CDB"/>
<stop offset="1" stop-color="#33D0E0"/>
</linearGradient>
<linearGradient id="paint9_linear_2_2" x1="-1.81002" y1="67.59" x2="170.4" y2="70.81" gradientUnits="userSpaceOnUse">
<stop stop-color="#FEDC31"/>
<stop offset="0.09" stop-color="#FDC347"/>
<stop offset="0.27" stop-color="#FC8682"/>
<stop offset="0.52" stop-color="#FA2CD7"/>
<stop offset="0.76" stop-color="#987CDB"/>
<stop offset="1" stop-color="#33D0E0"/>
</linearGradient>
<linearGradient id="paint10_linear_2_2" x1="3.41018" y1="41.3" x2="167.05" y2="44.35" gradientUnits="userSpaceOnUse">
<stop stop-color="#FEDC31"/>
<stop offset="0.09" stop-color="#FDC347"/>
<stop offset="0.27" stop-color="#FC8682"/>
<stop offset="0.52" stop-color="#FA2CD7"/>
<stop offset="0.76" stop-color="#987CDB"/>
<stop offset="1" stop-color="#33D0E0"/>
</linearGradient>
<linearGradient id="paint11_linear_2_2" x1="3.61018" y1="52.71" x2="166.86" y2="55.75" gradientUnits="userSpaceOnUse">
<stop stop-color="#FEDC31"/>
<stop offset="0.09" stop-color="#FDC347"/>
<stop offset="0.27" stop-color="#FC8682"/>
<stop offset="0.52" stop-color="#FA2CD7"/>
<stop offset="0.76" stop-color="#987CDB"/>
<stop offset="1" stop-color="#33D0E0"/>
</linearGradient>
<linearGradient id="paint12_linear_2_2" x1="1.7302" y1="65.04" x2="168.3" y2="68.15" gradientUnits="userSpaceOnUse">
<stop stop-color="#FEDC31"/>
<stop offset="0.09" stop-color="#FDC347"/>
<stop offset="0.27" stop-color="#FC8682"/>
<stop offset="0.52" stop-color="#FA2CD7"/>
<stop offset="0.76" stop-color="#987CDB"/>
<stop offset="1" stop-color="#33D0E0"/>
</linearGradient>
<linearGradient id="paint13_linear_2_2" x1="59.9499" y1="65.69" x2="134.36" y2="67.08" gradientUnits="userSpaceOnUse">
<stop stop-color="#FEDC31"/>
<stop offset="0.09" stop-color="#FDC347"/>
<stop offset="0.27" stop-color="#FC8682"/>
<stop offset="0.52" stop-color="#FA2CD7"/>
<stop offset="0.76" stop-color="#987CDB"/>
<stop offset="1" stop-color="#33D0E0"/>
</linearGradient>
<linearGradient id="paint14_linear_2_2" x1="-0.660045" y1="53.5" x2="170.17" y2="56.69" gradientUnits="userSpaceOnUse">
<stop stop-color="#FEDC31"/>
<stop offset="0.09" stop-color="#FDC347"/>
<stop offset="0.27" stop-color="#FC8682"/>
<stop offset="0.52" stop-color="#FA2CD7"/>
<stop offset="0.76" stop-color="#987CDB"/>
<stop offset="1" stop-color="#33D0E0"/>
</linearGradient>
<linearGradient id="paint15_linear_2_2" x1="84.3001" y1="67.94" x2="149.06" y2="69.15" gradientUnits="userSpaceOnUse">
<stop stop-color="#FEDC31"/>
<stop offset="0.09" stop-color="#FDC347"/>
<stop offset="0.27" stop-color="#FC8682"/>
<stop offset="0.52" stop-color="#FA2CD7"/>
<stop offset="0.76" stop-color="#987CDB"/>
<stop offset="1" stop-color="#33D0E0"/>
</linearGradient>
</defs>
</svg>
