<svg width="226" height="76" viewBox="0 0 226 76" fill="none" xmlns="http://www.w3.org/2000/svg">
<path d="M191.92 74.73V60.96H193.39V73.56H200.11V74.73H191.91H191.92Z" fill="#2B3446"/>
<path d="M205.27 74.73V62.13H200.57V60.96H211.48V62.13H206.76V74.73H205.28H205.27Z" fill="#2B3446"/>
<path d="M213.69 74.73V60.96H217.31C219.98 60.96 222.01 61.54 223.41 62.71C224.81 63.88 225.51 65.61 225.51 67.94C225.51 70.14 224.85 71.82 223.52 72.99C222.19 74.16 220.26 74.74 217.74 74.74H213.69V74.73ZM215.16 73.55H217.79C219.82 73.55 221.35 73.07 222.39 72.1C223.43 71.14 223.96 69.74 223.96 67.92C223.96 64.05 221.77 62.12 217.39 62.12H215.15V73.55H215.16Z" fill="#2B3446"/>
<path d="M0.0299988 22.03C0.0299988 22.03 0.0299988 22.06 0.0299988 22.07C0.0299988 22.8 0.0699841 23.46 0.139984 24.11C0.689984 24.03 1.24001 23.94 1.79001 23.85C1.20001 23.24 0.609999 22.64 0.0299988 22.03Z" fill="#2B3446"/>
<path d="M14.43 34.98C14.81 34.99 15.18 35.01 15.58 35.01C18.38 35.01 20.69 34.63 22.5 33.86C24.32 33.09 25.81 32.02 26.98 30.63C28.15 29.24 28.99 27.6 29.5 25.71L20.21 24.68C19.78 26.01 19.13 27 18.25 27.64C17.38 28.28 16.3 28.6 15.02 28.6C13.48 28.6 12.22 28.07 11.23 27.01C10.41 26.13 9.95 24.9 9.81 23.35C7.72 23.75 5.63999 24.12 3.57999 24.46C7.12999 28.06 10.78 31.56 14.43 34.98Z" fill="#2B3446"/>
<path d="M2.84 23.69C5.13 23.32 7.44 22.9 9.75 22.46C9.75 22.42 9.75 22.38 9.75 22.33C9.75 20.03 10.25 18.32 11.25 17.18C12.25 16.05 13.56 15.48 15.17 15.48C16.45 15.48 17.47 15.75 18.23 16.29C18.99 16.83 19.51 17.63 19.8 18.7L28.99 17.5C28.11 14.7 26.58 12.57 24.39 11.11C22.21 9.65 19.03 8.93001 14.87 8.93001C11.89 8.93001 9.44999 9.31 7.54999 10.08C6.34999 10.57 5.17999 11.31 4.04999 12.3C2.90999 13.29 2.01999 14.42 1.35999 15.67C0.619985 17.09 0.200007 18.82 0.0700073 20.82C0.980007 21.79 1.89999 22.74 2.82999 23.69H2.84Z" fill="#2B3446"/>
<path d="M1.13 27.99C1.87 29.48 2.87999 30.77 4.17999 31.87C5.47999 32.97 7.02001 33.77 8.82001 34.26C10.03 34.59 11.47 34.8 13.09 34.91C9.53 31.56 5.98 28.14 2.53 24.62C1.76 24.74 1.01 24.86 0.25 24.97C0.43 26.12 0.720005 27.14 1.13 27.98V27.99Z" fill="#2B3446"/>
<path d="M48.82 22.61V24.14C48.82 25.33 48.62 26.3 48.23 27.04C47.84 27.78 47.17 28.41 46.24 28.93C45.3 29.45 44.29 29.71 43.2 29.71C42.11 29.71 41.37 29.47 40.84 28.99C40.34 28.55 40.09 27.98 40.05 27.3C37.29 28.92 34.54 30.52 31.78 32.08C32.03 32.38 32.29 32.68 32.6 32.95C34.18 34.33 36.48 35.02 39.52 35.02C41.81 35.02 43.82 34.67 45.54 33.99C46.8 33.47 48.08 32.61 49.36 31.41C49.47 32.13 49.58 32.66 49.7 33C49.81 33.34 50.05 33.83 50.42 34.47H59.59C59.08 33.44 58.75 32.59 58.59 31.92C58.5 31.51 58.44 30.96 58.41 30.34C55.96 27.14 53.48 23.95 50.95 20.79C49.65 21.58 48.36 22.37 47.07 23.14C47.65 22.96 48.26 22.82 48.82 22.62V22.61Z" fill="#2B3446"/>
<path d="M58.38 28.83V18.12C58.38 17.52 58.31 16.9 58.19 16.27C56.04 17.64 53.88 18.99 51.72 20.32C53.98 23.14 56.2 25.99 58.39 28.84L58.38 28.83Z" fill="#2B3446"/>
<path d="M47.28 14.88C47.6 14.99 47.88 15.13 48.08 15.32C48.38 15.61 48.58 16.05 48.7 16.6C49.52 17.6 50.34 18.61 51.15 19.63C53.41 18.25 55.67 16.83 57.93 15.39C57.84 15.07 57.78 14.75 57.65 14.42C57.17 13.13 56.51 12.13 55.68 11.42C54.5 10.4 53.02 9.73 51.24 9.41C50.67 9.31 50.02 9.23 49.34 9.16C47.84 10.09 46.29 10.98 44.7 11.84C45.56 12.85 46.43 13.86 47.28 14.88Z" fill="#2B3446"/>
<path d="M38.24 20.45C35.18 21.04 33.09 21.95 31.95 23.17C30.81 24.39 30.25 25.95 30.25 27.84C30.25 29.15 30.62 30.31 31.28 31.35C34.28 29.66 37.28 27.92 40.28 26.14C40.42 25.87 40.6 25.61 40.86 25.37C41.3 24.95 42.27 24.53 43.71 24.1C45.93 22.78 48.16 21.44 50.4 20.07C49.8 19.33 49.21 18.59 48.6 17.85C47.47 18.28 46.38 18.64 45.36 18.91C44.27 19.2 41.9 19.71 38.23 20.43L38.24 20.45Z" fill="#2B3446"/>
<path d="M44.12 11.16C45.4 10.48 46.64 9.77001 47.85 9.04001C46.75 8.97001 45.54 8.93001 44.19 8.93001C43.52 8.93001 42.88 8.97 42.25 9C42.88 9.71 43.5 10.43 44.12 11.15V11.16Z" fill="#2B3446"/>
<path d="M39.1 9.33C37.53 9.6 36.3 9.97001 35.4 10.46C34.15 11.13 33.2 11.93 32.53 12.84C31.87 13.76 31.36 15.01 31.01 16.61L31.61 16.67C35.74 15.18 39.66 13.47 43.33 11.57C42.61 10.73 41.88 9.91 41.14 9.08C40.44 9.14 39.75 9.22 39.1 9.33Z" fill="#2B3446"/>
<path d="M40.35 17.58C40.73 16.5 41.24 15.76 41.86 15.37C42.66 14.87 43.86 14.62 45.46 14.62C45.63 14.62 45.77 14.64 45.93 14.64C45.26 13.84 44.59 13.05 43.91 12.26C40.66 13.96 37.22 15.51 33.6 16.88L40.34 17.58H40.35Z" fill="#2B3446"/>
<path d="M71.25 7.43001C71.44 7.53001 71.63 7.62 71.82 7.72V7.02C71.63 7.16 71.44 7.29001 71.25 7.43001Z" fill="#2B3446"/>
<path d="M62.03 33.61C62.24 33.89 62.45 34.16 62.66 34.44H71.82V8.70001C71.36 8.47001 70.9 8.23 70.45 8C67.68 9.98 64.87 11.91 62.03 13.77V33.61Z" fill="#2B3446"/>
<path d="M62.03 12.74C64.57 11.06 67.08 9.33001 69.57 7.57001C66.98 6.22001 64.47 4.84001 62.03 3.42001V12.74Z" fill="#2B3446"/>
<path d="M62.03 2.39C64.72 3.97 67.5 5.50001 70.37 6.98001C70.85 6.63001 71.34 6.29 71.82 5.94V0H62.03V2.38V2.39Z" fill="#2B3446"/>
<path d="M88.03 16.08C88.03 16.08 88.12 16.09 88.16 16.09C84.62 14.66 81.19 13.17 77.88 11.64C77.68 11.83 77.48 12.02 77.28 12.23C75.26 14.42 74.24 17.59 74.24 21.72C74.24 25.42 75.16 28.56 76.99 31.14C78.82 33.72 81.47 35.02 84.95 35.02C86.68 35.02 88.25 34.66 89.65 33.94C90.71 33.39 91.87 32.34 93.15 30.77V34.46H97.5C99.08 33.56 100.67 32.64 102.29 31.71V21.36C98.34 20.02 94.53 18.62 90.83 17.17C90.96 17.29 91.1 17.4 91.22 17.54C92.07 18.5 92.49 19.96 92.49 21.92C92.49 24.08 92.07 25.64 91.24 26.59C90.41 27.55 89.37 28.02 88.12 28.02C86.95 28.02 85.97 27.55 85.18 26.6C84.39 25.65 83.99 24.16 83.99 22.13C83.99 19.95 84.37 18.4 85.14 17.48C85.91 16.56 86.86 16.09 88 16.09L88.03 16.08Z" fill="#2B3446"/>
<path d="M102.31 34.45V32.71C101.29 33.3 100.28 33.88 99.28 34.45H102.31Z" fill="#2B3446"/>
<path d="M102.31 20.42V18.26C101.03 16.76 99.71 15.29 98.44 13.78C96.46 11.41 94.43 8.94 92.44 6.38V11.94C91.48 10.94 90.38 10.19 89.14 9.69C87.9 9.19 86.52 8.94 85 8.94C82.53 8.94 80.4 9.64 78.62 11.02C85.95 14.4 93.82 17.53 102.3 20.43L102.31 20.42Z" fill="#2B3446"/>
<path d="M99.11 13.21C100.16 14.46 101.25 15.68 102.31 16.92V0.0100098H92.45V4.95001C94.65 7.82001 96.91 10.58 99.11 13.22V13.21Z" fill="#2B3446"/>
<path d="M118.44 34.98C118.69 34.98 118.92 35.01 119.18 35.01C123.07 35.01 126.05 34.46 128.13 33.38C129.61 32.6 130.94 31.45 132.11 29.95C129.19 29.24 126.25 28.49 123.3 27.7C122.89 28.13 122.5 28.49 122.13 28.69C121.27 29.16 120.36 29.39 119.39 29.39C117.87 29.39 116.64 28.85 115.69 27.77C115.21 27.23 114.86 26.48 114.63 25.54C114.6 25.56 114.56 25.58 114.53 25.6C113.49 26.21 112.49 26.79 111.47 27.38C113.77 29.93 116.07 32.47 118.42 34.98H118.44Z" fill="#2B3446"/>
<path d="M134.02 24.35V23.27C134.02 19.98 133.47 17.31 132.36 15.26C132.32 15.18 132.26 15.11 132.21 15.03C127.23 18.15 122.05 21.22 116.7 24.36H134.02V24.35Z" fill="#2B3446"/>
<path d="M104.55 20.86C104.55 20.96 104.55 21.06 104.54 21.16C104.67 21.2 104.8 21.25 104.93 21.29C104.81 21.15 104.68 21 104.56 20.86H104.55Z" fill="#2B3446"/>
<path d="M111.22 33.61C112.76 34.35 114.77 34.78 117.22 34.94C115.03 32.6 112.87 30.22 110.72 27.84C109.47 28.56 108.22 29.29 107 30C108.17 31.6 109.57 32.82 111.22 33.62V33.61Z" fill="#2B3446"/>
<path d="M106.41 29.17C106.41 29.17 106.46 29.24 106.49 29.28C107.68 28.59 108.9 27.88 110.12 27.17C108.75 25.65 107.4 24.12 106.05 22.58C105.53 22.41 105.03 22.24 104.52 22.07C104.52 24.79 105.16 27.16 106.42 29.17H106.41Z" fill="#2B3446"/>
<path d="M106.54 21.83C109.19 22.69 111.91 23.53 114.68 24.35H114.98C117.62 22.81 120.2 21.29 122.74 19.77H114.47C114.63 18.28 115.01 17.16 115.6 16.41C116.53 15.2 117.77 14.6 119.32 14.6C120.66 14.6 121.75 15 122.57 15.8C123.28 16.48 123.74 17.58 123.98 19.03C126.62 17.45 129.22 15.87 131.76 14.28C130.7 12.71 129.31 11.45 127.56 10.56C125.45 9.48001 122.57 8.94 118.92 8.94C114.42 8.94 110.9 10.15 108.35 12.56C106.33 14.47 105.13 16.84 104.7 19.68C105.32 20.4 105.93 21.12 106.56 21.83H106.54Z" fill="#2B3446"/>
<path d="M124.88 27.21C127.49 27.9 130.08 28.56 132.67 29.18C132.94 28.79 133.21 28.41 133.46 27.99L124.87 27.21H124.88Z" fill="#2B3446"/>
<path d="M110.89 26.73C111.87 26.16 112.84 25.6 113.84 25.01C111.74 24.38 109.67 23.75 107.64 23.1C108.71 24.32 109.8 25.52 110.89 26.73Z" fill="#2B3446"/>
<path d="M137.81 30.36C140.42 30.94 143.01 31.49 145.59 32.01C146.27 31.53 146.94 31.04 147.62 30.56V26.08C147.62 22.09 148.13 19.36 149.13 17.91C149.83 16.88 150.83 16.36 152.11 16.36C152.78 16.36 153.69 16.59 154.85 17.06L157.87 10.25C156.16 9.37 154.58 8.93001 153.14 8.93001C151.7 8.93001 150.61 9.26001 149.67 9.93001C148.73 10.6 147.83 11.81 146.95 13.58V9.49001H140.7C139.74 10.14 138.78 10.79 137.81 11.43V30.35V30.36Z" fill="#2B3446"/>
<path d="M137.81 34.45H142.02C142.88 33.87 143.74 33.29 144.59 32.7C142.34 32.25 140.08 31.77 137.81 31.26V34.45Z" fill="#2B3446"/>
<path d="M147.62 33.31C147.01 33.19 146.39 33.06 145.78 32.94C145.05 33.45 144.31 33.94 143.57 34.44H147.62V33.31Z" fill="#2B3446"/>
<path d="M147.62 32.42V31.63C147.33 31.83 147.05 32.04 146.76 32.25C147.05 32.31 147.34 32.37 147.62 32.42Z" fill="#2B3446"/>
<path d="M139.13 9.5H137.81V10.39C138.25 10.1 138.69 9.8 139.13 9.5Z" fill="#2B3446"/>
<path d="M13.41 40.79V50.28H18.79V57.28H13.41V66.12C13.41 67.18 13.51 67.89 13.72 68.23C14.04 68.76 14.6 69.03 15.4 69.03C16.12 69.03 17.13 68.83 18.42 68.42L19.14 75.02C16.72 75.54 14.47 75.8 12.37 75.8C9.94 75.8 8.14999 75.5 6.98999 74.88C5.83999 74.27 4.98999 73.34 4.42999 72.1C3.87999 70.86 3.60001 68.84 3.60001 66.06V57.28H0V50.28H3.60001V45.7L13.39 40.79H13.41Z" fill="#2B3446"/>
<path d="M43.98 63.6C42.32 62.19 40.68 60.73 39.06 59.27C39.15 59.66 39.21 60.09 39.26 60.54H29.64C29.8 59.05 30.18 57.93 30.77 57.18C31.7 55.97 32.94 55.37 34.49 55.37C34.61 55.37 34.72 55.39 34.84 55.4C32.99 53.68 31.16 51.96 29.35 50.24C27.03 50.81 25.08 51.84 23.51 53.33C20.96 55.74 19.68 58.9 19.68 62.8C19.68 65.54 20.32 67.93 21.59 69.95C22.19 70.91 22.88 71.74 23.63 72.45C26.33 71.43 29.01 70.37 31.64 69.25C31.37 69.05 31.12 68.82 30.89 68.55C30.22 67.8 29.79 66.66 29.62 65.12H40.79C41.86 64.61 42.92 64.11 43.98 63.59V63.6Z" fill="#2B3446"/>
<path d="M49.2 65.13V64.05C49.2 63.35 49.16 62.69 49.11 62.04C47.95 62.63 46.76 63.21 45.59 63.79C46.13 64.25 46.69 64.68 47.24 65.13H49.21H49.2Z" fill="#2B3446"/>
<path d="M49.01 61.11C48.77 59.14 48.3 57.44 47.54 56.04C46.44 53.99 44.83 52.42 42.72 51.34C40.61 50.26 37.73 49.72 34.08 49.72C32.77 49.72 31.55 49.84 30.4 50.04C32.43 51.96 34.48 53.88 36.55 55.8C36.99 55.99 37.39 56.24 37.74 56.58C38.01 56.84 38.23 57.17 38.42 57.53C40.53 59.45 42.67 61.33 44.84 63.17C46.24 62.48 47.63 61.8 49.01 61.1V61.11Z" fill="#2B3446"/>
<path d="M44.72 64.21C44.09 64.52 43.48 64.83 42.85 65.13H45.85C45.48 64.82 45.1 64.52 44.72 64.21Z" fill="#2B3446"/>
<path d="M43.32 74.16C45.4 73.07 47.18 71.28 48.65 68.77L39.03 67.9C38.42 68.65 37.85 69.18 37.33 69.47C36.47 69.94 35.56 70.17 34.59 70.17C33.86 70.17 33.2 70.04 32.6 69.79C29.9 70.95 27.17 72.05 24.41 73.1C25.04 73.6 25.69 74.04 26.41 74.39C28.35 75.32 31 75.79 34.38 75.79C38.27 75.79 41.25 75.24 43.33 74.16H43.32Z" fill="#2B3446"/>
<path d="M58.32 74.46C56 72.94 53.65 71.26 51.29 69.47L47.21 75.23H57.79L58.32 74.46Z" fill="#2B3446"/>
<path d="M70.12 62.17L76.3 53.72C75.4 52.58 74.5 51.43 73.61 50.28H71.13C69.48 51.19 67.84 52.08 66.21 52.97L63.32 57.23L62.13 55.18C59.57 56.56 56.99 57.95 54.37 59.32L56.47 62.16L51.8 68.75C54.16 70.54 56.51 72.22 58.82 73.73L63.32 67.19L68.04 75.23H79.44L70.12 62.17Z" fill="#2B3446"/>
<path d="M59.28 50.28H47.69L53.84 58.61C56.49 57.22 59.1 55.82 61.69 54.43L59.28 50.28Z" fill="#2B3446"/>
<path d="M76.83 52.99L78.81 50.28H74.72C75.42 51.18 76.13 52.08 76.84 52.99H76.83Z" fill="#2B3446"/>
<path d="M68.04 50.28L67.29 51.39C67.96 51.02 68.64 50.65 69.32 50.28H68.05H68.04Z" fill="#2B3446"/>
<path d="M83.85 63.04V66.05C83.85 68.83 84.13 70.85 84.68 72.09C84.76 72.26 84.85 72.42 84.94 72.58C86.48 71.61 88.01 70.62 89.53 69.62C87.6 67.46 85.71 65.27 83.85 63.04Z" fill="#2B3446"/>
<path d="M93.64 66.12V57.28H99.02V50.28H93.64V40.79L83.85 45.7V50.28H80.25V57.28H83.85V61.69C85.94 64.21 88.08 66.69 90.26 69.13C91.4 68.37 92.53 67.61 93.66 66.85C93.65 66.63 93.64 66.39 93.64 66.12Z" fill="#2B3446"/>
<path d="M87.23 74.88C88.38 75.49 90.17 75.8 92.61 75.8C93.41 75.8 94.26 75.73 95.1 75.65C93.41 73.89 91.75 72.1 90.11 70.29C88.55 71.32 86.99 72.33 85.41 73.33C85.9 73.97 86.5 74.5 87.23 74.89V74.88Z" fill="#2B3446"/>
<path d="M98.66 68.42C97.36 68.83 96.36 69.03 95.64 69.03C94.84 69.03 94.28 68.76 93.96 68.23C93.9 68.13 93.85 67.98 93.8 67.81C92.82 68.47 91.84 69.13 90.85 69.79C92.6 71.74 94.39 73.66 96.21 75.54C96.84 75.46 97.5 75.33 98.16 75.22C98.56 75.08 98.95 74.93 99.35 74.79L98.65 68.42H98.66Z" fill="#2B3446"/>
<path d="M111.27 40.79H101.5V47.3H111.27V40.79Z" fill="#2B3446"/>
<path d="M111.26 71.87C107.99 72.85 104.73 73.9 101.49 74.99V75.22H111.26V71.86V71.87Z" fill="#2B3446"/>
<path d="M111.26 54.68V50.28H101.49V61.44C101.92 61.14 102.36 60.83 102.79 60.53C105.56 58.6 108.41 56.62 111.25 54.68H111.26Z" fill="#2B3446"/>
<path d="M111.26 55.74C108.58 57.57 105.9 59.43 103.29 61.25C102.69 61.67 102.09 62.09 101.49 62.5V74.07C104.73 72.98 107.98 71.93 111.26 70.96V55.74Z" fill="#2B3446"/>
<path d="M125.05 41.82V40.8H124.06C124.39 41.14 124.72 41.48 125.05 41.82Z" fill="#2B3446"/>
<path d="M125.05 67.97C121.79 68.86 118.53 69.77 115.26 70.71V75.23H125.05V67.97Z" fill="#2B3446"/>
<path d="M125.05 46.62C121.79 48.73 118.51 50.87 115.26 53.04V69.8C118.53 68.86 121.8 67.95 125.05 67.07V46.63V46.62Z" fill="#2B3446"/>
<path d="M125.05 43.07C124.31 42.31 123.58 41.55 122.84 40.79H115.26V51.99C118.51 49.82 121.79 47.68 125.05 45.58V43.07Z" fill="#2B3446"/>
<path d="M149.43 65.13H157V64.05C157 62.12 156.79 60.42 156.4 58.92C152.97 60.07 149.51 61.14 146.04 62.16C147.16 63.16 148.29 64.15 149.43 65.14V65.13Z" fill="#2B3446"/>
<path d="M155.53 70.15C155.84 69.71 156.15 69.27 156.44 68.77L153.47 68.5C154.15 69.05 154.84 69.6 155.53 70.14V70.15Z" fill="#2B3446"/>
<path d="M155.34 56.04C154.24 53.99 152.63 52.42 150.52 51.34C148.41 50.26 145.53 49.72 141.88 49.72C139 49.72 136.53 50.22 134.45 51.21C136.17 52.88 137.86 54.58 139.6 56.22C140.36 55.68 141.25 55.38 142.29 55.38C143.63 55.38 144.72 55.78 145.54 56.58C146.36 57.38 146.87 58.7 147.06 60.55H144.26C144.6 60.86 144.93 61.16 145.27 61.47C148.92 60.4 152.56 59.28 156.17 58.07C155.94 57.34 155.67 56.65 155.34 56.04Z" fill="#2B3446"/>
<path d="M151.91 68.36L146.82 67.9C146.21 68.65 145.64 69.18 145.12 69.47C144.26 69.94 143.35 70.17 142.38 70.17C140.86 70.17 139.63 69.63 138.68 68.55C138.01 67.8 137.58 66.66 137.41 65.12H148.09C147.07 64.23 146.05 63.34 145.05 62.44C139.87 63.95 134.68 65.36 129.52 66.75C129.05 66.88 128.58 67 128.12 67.13C128.43 68.13 128.84 69.08 129.38 69.95C130.65 71.98 132.26 73.46 134.19 74.39C136.13 75.32 138.78 75.79 142.16 75.79C146.05 75.79 149.03 75.24 151.11 74.16C152.56 73.4 153.84 72.28 155 70.84C153.96 70.03 152.93 69.2 151.91 68.36Z" fill="#2B3446"/>
<path d="M144.28 61.76C143.84 61.36 143.4 60.96 142.96 60.55H137.43C137.59 59.06 137.97 57.94 138.56 57.19C138.68 57.04 138.81 56.93 138.94 56.8C137.15 55.11 135.4 53.36 133.63 51.64C132.78 52.12 132 52.68 131.3 53.35C128.75 55.76 127.47 58.92 127.47 62.82C127.47 64.06 127.62 65.21 127.88 66.31C128.35 66.18 128.82 66.05 129.29 65.93C134.26 64.59 139.27 63.23 144.27 61.78L144.28 61.76Z" fill="#2B3446"/>
<path d="M172.42 49.72C169.54 49.72 167.24 50.01 165.53 50.6C163.82 51.19 162.47 52.07 161.5 53.26C160.69 54.25 160.23 55.4 160.1 56.71C165.68 54.72 171.16 52.49 176.47 49.9C175.33 49.78 173.98 49.72 172.42 49.72Z" fill="#2B3446"/>
<path d="M181.16 60.47C179.58 59.83 177.16 59.33 173.91 58.97C171.77 58.72 170.37 58.44 169.73 58.13C169.09 57.82 168.77 57.36 168.77 56.75C168.77 56.2 169.02 55.74 169.53 55.36C170.03 54.98 170.84 54.78 171.94 54.78C173.04 54.78 173.96 55.03 174.72 55.53C175.28 55.91 175.68 56.49 175.92 57.29L185.18 56.4C184.54 54.77 183.74 53.48 182.77 52.52C181.8 51.57 180.59 50.86 179.15 50.41C178.81 50.3 178.43 50.21 178.01 50.13C172.2 53.03 166.18 55.49 160.05 57.66C160.08 59.1 160.52 60.39 161.39 61.53C162.29 62.7 163.41 63.54 164.73 64.03C166.05 64.52 168.41 65.06 171.8 65.64C174.07 66.03 175.47 66.36 176 66.63C176.74 67.01 177.1 67.54 177.1 68.22C177.1 68.83 176.82 69.34 176.26 69.75C175.54 70.3 174.52 70.57 173.21 70.57C172.01 70.57 171.05 70.33 170.33 69.84C169.61 69.35 169.05 68.55 168.65 67.42L158.95 68.31C159.51 70.71 160.78 72.55 162.75 73.85C164.73 75.15 168.04 75.8 172.7 75.8C176 75.8 178.6 75.4 180.51 74.59C182.42 73.78 183.82 72.7 184.71 71.34C185.6 69.98 186.04 68.58 186.04 67.14C186.04 65.7 185.62 64.41 184.78 63.22C183.94 62.03 182.73 61.12 181.14 60.47H181.16Z" fill="#2B3446"/>
</svg>
