<svg width="32" height="26" viewBox="0 0 32 26" fill="none" xmlns="http://www.w3.org/2000/svg">
<path d="M15.7 25.6284C14.04 25.6284 12.45 25.2684 11.18 24.3584C10.01 23.5284 9.16999 22.3784 8.45999 21.3784C7.84999 20.5084 7.18999 19.5084 6.67999 18.4184C6.19999 18.2584 5.72001 18.1184 5.23001 18.0184C3.34001 17.6084 1.97 17.7484 0.339996 18.5284L0 17.8284C1.8 16.9784 3.31001 16.8184 5.39001 17.2684C5.69001 17.3284 5.97999 17.4084 6.26999 17.4984C6.21999 17.3784 6.18001 17.2484 6.14001 17.1284C5.03001 13.7084 5.26999 9.86838 6.79999 6.86838C8.38999 3.74838 11.68 1.21839 15.28 1.04839C15.86 0.778387 16.48 0.588387 17.09 0.438387C17.65 0.208387 18.22 0.0683818 18.96 0.0583818C20.06 -0.131618 21.12 0.178385 21.93 0.468385C27.58 2.50839 31.69 8.35838 31.7 14.3884C31.7 16.8884 31.07 19.2184 29.86 21.1184C28.53 23.2084 26.5 24.7384 24.28 25.2984C23.19 25.5784 22.17 25.6084 21.22 25.3984C20.81 25.3084 20.4 25.1584 19.98 24.9684C18.63 25.3884 17.14 25.6584 15.7 25.6584V25.6284ZM7.75 18.8184C8.16 19.5584 8.63 20.2584 9.09 20.9284C9.76 21.8784 10.56 22.9584 11.62 23.7284C13.25 24.8984 15.51 25.0584 17.68 24.6984C12.65 24.0984 10.2 21.8484 9.45001 19.5684C8.87001 19.2984 8.29999 19.0484 7.73999 18.8184H7.75ZM21.11 24.5384C21.2 24.5684 21.29 24.5884 21.39 24.6084C22.21 24.7984 23.12 24.7684 24.08 24.5184C26.11 23.9984 27.97 22.5984 29.19 20.6784C30.32 18.8984 30.91 16.7184 30.91 14.3584C30.91 11.6184 30 8.90839 28.48 6.62839C29.98 9.94839 29.91 14.0484 28.29 17.6284C27.18 20.0684 25.49 22.0684 23.4 23.4084C22.76 23.8184 21.98 24.2084 21.12 24.5484L21.11 24.5384ZM17.76 22.4084C18.15 22.7784 18.55 23.1184 18.98 23.4284C19.35 23.6984 19.7 23.9184 20.05 24.0984C21.18 23.7184 22.19 23.2384 22.98 22.7384C24.92 21.4984 26.55 19.5684 27.58 17.2984C29.14 13.8684 29.19 9.95838 27.71 6.81838C26.39 3.99838 23.29 0.758382 19.04 0.808382C18.49 0.908382 17.92 1.01838 17.35 1.14838C17.32 1.15838 17.3 1.16838 17.27 1.17838C17.73 1.27838 18.2 1.40838 18.66 1.59838C20.98 2.52838 22.75 4.47839 23.78 7.21839C25.18 10.9484 24.99 15.8384 23.32 19.1084C22.62 20.4684 21.85 21.3384 20.89 21.8484C20.12 22.2584 19.14 22.4384 18.01 22.4184C17.93 22.4184 17.84 22.4184 17.76 22.4184V22.4084ZM10.52 20.0684C11.51 21.9184 13.92 23.5984 18.42 23.9884C17.75 23.4884 17.12 22.9184 16.55 22.2784C14.46 21.9184 12.47 20.9884 10.53 20.0684H10.52ZM16.95 21.5484C17.31 21.5984 17.67 21.6284 18.04 21.6384C19.04 21.6584 19.88 21.4984 20.53 21.1584C21.34 20.7284 22.01 19.9684 22.63 18.7584C24.21 15.6684 24.38 11.0384 23.06 7.49838C22.4 5.73838 21.05 3.40839 18.38 2.32839C17.64 2.02839 16.9 1.86838 16.16 1.81838C15.08 2.63838 14.34 4.11839 13.89 6.32839C13.21 9.73839 13.23 12.8984 13.97 15.7284C14.55 17.9584 15.58 19.9484 16.95 21.5484ZM10.11 19.0084C10.34 19.1184 10.58 19.2284 10.81 19.3384C12.42 20.0984 14.07 20.8784 15.76 21.3084C14.61 19.7684 13.74 17.9384 13.22 15.9284C12.46 12.9884 12.43 9.70838 13.14 6.17838C13.47 4.54838 13.96 3.27839 14.62 2.32839C14.43 2.47839 14.25 2.63839 14.08 2.82839C12.51 4.57839 11.37 6.80839 10.67 9.43839C10.31 10.8284 10.07 12.3184 9.94 13.9984C9.87 14.9684 9.9 15.8784 9.94 16.8484C9.96 17.2484 9.97001 17.6484 9.98001 18.0484C9.98001 18.3584 10.03 18.6884 10.11 19.0084ZM7.23999 17.7884C7.90999 18.0284 8.57999 18.3084 9.23999 18.6084C9.21999 18.4284 9.20001 18.2384 9.20001 18.0584C9.20001 17.6584 9.18 17.2684 9.16 16.8684C9.12 15.9184 9.08 14.9384 9.16 13.9284C9.29 12.1984 9.53 10.6684 9.91 9.22838C10.63 6.46838 11.84 4.13839 13.49 2.29839C13.57 2.20839 13.66 2.11838 13.74 2.03838C11.07 2.72838 8.73 4.76839 7.5 7.18839C6.07 10.0084 5.84001 13.6184 6.89001 16.8484C6.99001 17.1684 7.10999 17.4784 7.23999 17.7784V17.7884Z" fill="url(#paint0_linear_1_2)"/>
<defs>
<linearGradient id="paint0_linear_1_2" x1="0.0185905" y1="12.4519" x2="31.7183" y2="12.3935" gradientUnits="userSpaceOnUse">
<stop stop-color="#FEDC31"/>
<stop offset="0.09" stop-color="#FDC347"/>
<stop offset="0.27" stop-color="#FC8682"/>
<stop offset="0.52" stop-color="#FA2CD7"/>
<stop offset="0.76" stop-color="#987CDB"/>
<stop offset="1" stop-color="#33D0E0"/>
</linearGradient>
</defs>
</svg>
