<svg width="352" height="47" viewBox="0 0 352 47" fill="none" xmlns="http://www.w3.org/2000/svg">
<rect width="352" height="47" fill="#F5F5F5"/>
<path d="M192.79 0.669998V36.46H183.45V32.63C182.14 34.26 180.95 35.36 179.87 35.93C178.43 36.68 176.83 37.05 175.07 37.05C171.52 37.05 168.82 35.71 166.95 33.02C165.08 30.33 164.14 27.07 164.14 23.23C164.14 18.93 165.17 15.65 167.24 13.37C169.31 11.09 171.93 9.95 175.12 9.95C176.67 9.95 178.08 10.21 179.35 10.73C180.62 11.25 181.74 12.03 182.72 13.07V0.669998H192.79ZM182.8 23.42C182.8 21.39 182.37 19.87 181.5 18.87C180.63 17.87 179.54 17.37 178.22 17.37C177.06 17.37 176.09 17.85 175.3 18.81C174.52 19.77 174.12 21.38 174.12 23.64C174.12 25.76 174.52 27.31 175.33 28.29C176.14 29.28 177.14 29.77 178.33 29.77C179.6 29.77 180.67 29.27 181.52 28.28C182.37 27.29 182.79 25.67 182.79 23.42H182.8Z" fill="#2C3446"/>
<path d="M192.24 10.53H202.76L208.13 27.79L213.12 10.53H222.95L212.62 38.23C211.44 41.39 210.24 43.52 209.02 44.63C207.29 46.19 204.65 46.98 201.11 46.98C199.67 46.98 197.45 46.78 194.45 46.39L193.67 39.46C195.11 39.92 196.71 40.14 198.47 40.14C199.65 40.14 200.6 39.87 201.32 39.33C202.05 38.79 202.66 37.83 203.17 36.45L192.25 10.53H192.24Z" fill="#2C3446"/>
<path d="M250.04 25.96H230.04C230.22 27.56 230.65 28.74 231.34 29.52C232.3 30.64 233.56 31.2 235.11 31.2C236.09 31.2 237.02 30.96 237.9 30.47C238.44 30.16 239.02 29.62 239.64 28.83L249.47 29.73C247.97 32.33 246.15 34.2 244.03 35.33C241.91 36.46 238.86 37.03 234.89 37.03C231.44 37.03 228.73 36.55 226.75 35.58C224.77 34.61 223.14 33.07 221.84 30.97C220.54 28.86 219.89 26.38 219.89 23.54C219.89 19.49 221.19 16.21 223.8 13.7C226.41 11.19 230 9.94 234.59 9.94C238.32 9.94 241.26 10.5 243.41 11.62C245.57 12.74 247.21 14.37 248.34 16.5C249.47 18.63 250.03 21.41 250.03 24.83V25.95L250.04 25.96ZM239.89 21.2C239.69 19.28 239.18 17.9 238.33 17.07C237.48 16.24 236.38 15.82 235.01 15.82C233.43 15.82 232.16 16.45 231.21 17.7C230.61 18.48 230.22 19.65 230.06 21.19H239.89V21.2Z" fill="#2C3446"/>
<path d="M251.22 0.669998H261.19V7.43001H251.22V0.669998ZM251.22 10.53H261.19V36.46H251.22V10.53Z" fill="#2C3446"/>
<path d="M263.8 10.53H273.09V14.75C274.48 13.03 275.88 11.79 277.31 11.05C278.73 10.31 280.46 9.94 282.51 9.94C285.27 9.94 287.43 10.76 288.99 12.39C290.55 14.03 291.33 16.55 291.33 19.97V36.45H281.31V22.19C281.31 20.56 281.01 19.41 280.4 18.74C279.8 18.06 278.95 17.73 277.85 17.73C276.64 17.73 275.66 18.19 274.91 19.1C274.16 20.01 273.78 21.65 273.78 24.01V36.46H263.81V10.53H263.8Z" fill="#2C3446"/>
<path d="M311.62 10.53H320.96V35.02L320.98 36.17C320.98 37.8 320.63 39.35 319.94 40.82C319.25 42.29 318.32 43.48 317.17 44.4C316.02 45.31 314.56 45.97 312.78 46.38C311.01 46.79 308.98 46.99 306.69 46.99C301.46 46.99 297.87 46.21 295.92 44.65C293.97 43.09 292.99 41 292.99 38.38C292.99 38.05 293.01 37.61 293.04 37.06L302.72 38.16C302.97 39.06 303.34 39.67 303.85 40.02C304.59 40.52 305.51 40.78 306.62 40.78C308.06 40.78 309.13 40.4 309.84 39.63C310.55 38.86 310.91 37.53 310.91 35.63V31.7C309.93 32.86 308.95 33.69 307.97 34.21C306.43 35.02 304.78 35.43 303 35.43C299.52 35.43 296.71 33.92 294.57 30.89C293.05 28.74 292.29 25.9 292.29 22.37C292.29 18.33 293.27 15.26 295.23 13.14C297.19 11.02 299.76 9.97 302.93 9.97C304.96 9.97 306.63 10.31 307.94 10.99C309.25 11.67 310.48 12.81 311.63 14.38V10.55L311.62 10.53ZM302.24 23.11C302.24 24.98 302.64 26.37 303.44 27.27C304.24 28.17 305.29 28.62 306.6 28.62C307.91 28.62 308.88 28.15 309.72 27.22C310.56 26.28 310.98 24.87 310.98 22.98C310.98 21.09 310.54 19.65 309.66 18.65C308.78 17.65 307.7 17.15 306.42 17.15C305.14 17.15 304.13 17.61 303.37 18.53C302.61 19.45 302.23 20.98 302.23 23.11H302.24Z" fill="#2C3446"/>
<path d="M326.7 25.93V35.8H332.58V37.05H325.22V25.93H326.7Z" fill="#2C3446"/>
<path d="M331.65 27.18V25.93H340.54V27.18H336.83V37.05H335.35V27.18H331.64H331.65Z" fill="#2C3446"/>
<path d="M345.97 25.93C347.68 25.93 349 26.37 349.92 27.24C350.84 28.11 351.31 29.44 351.31 31.23C351.31 32.16 351.21 32.99 351 33.71C350.79 34.43 350.47 35.04 350.04 35.53C349.6 36.02 349.05 36.4 348.37 36.66C347.69 36.92 346.9 37.05 345.97 37.05H342.16V25.93H345.97ZM346.1 35.8C346.27 35.8 346.47 35.79 346.72 35.76C346.97 35.73 347.23 35.67 347.51 35.57C347.79 35.47 348.07 35.33 348.34 35.14C348.61 34.95 348.86 34.7 349.08 34.38C349.3 34.06 349.48 33.66 349.62 33.17C349.76 32.69 349.83 32.1 349.83 31.42C349.83 30.74 349.77 30.16 349.64 29.64C349.51 29.12 349.3 28.67 349 28.3C348.71 27.93 348.32 27.65 347.86 27.46C347.4 27.27 346.82 27.17 346.13 27.17H343.64V35.79H346.1V35.8Z" fill="#2C3446"/>
<path d="M25.22 26.12L35.13 27.21C34.58 29.22 33.69 30.95 32.44 32.42C31.19 33.89 29.6 35.03 27.66 35.84C25.72 36.65 23.26 37.06 20.27 37.06C17.28 37.06 14.98 36.8 13.06 36.28C11.14 35.76 9.48999 34.91 8.09999 33.74C6.71999 32.57 5.63001 31.2 4.85001 29.63C4.06001 28.06 3.67 25.97 3.67 23.37C3.67 20.77 4.15001 18.39 5.10001 16.58C5.80001 15.25 6.75999 14.07 7.96999 13.01C9.17999 11.96 10.43 11.17 11.71 10.66C13.74 9.85 16.35 9.44 19.52 9.44C23.96 9.44 27.34 10.21 29.68 11.75C32.01 13.29 33.65 15.55 34.58 18.52L24.77 19.79C24.46 18.66 23.9 17.81 23.09 17.24C22.28 16.67 21.19 16.38 19.82 16.38C18.09 16.38 16.7 16.98 15.63 18.18C14.56 19.38 14.03 21.2 14.03 23.63C14.03 25.8 14.56 27.45 15.62 28.57C16.68 29.7 18.03 30.26 19.67 30.26C21.04 30.26 22.18 29.92 23.11 29.24C24.04 28.56 24.74 27.51 25.2 26.11L25.22 26.12Z" fill="url(#paint0_linear_0_1)"/>
<path d="M45.49 18.61L35.53 17.59C35.91 15.9 36.45 14.57 37.16 13.6C37.87 12.63 38.89 11.79 40.22 11.07C41.18 10.56 42.49 10.16 44.16 9.88C45.83 9.6 47.64 9.46001 49.59 9.46001C52.71 9.46001 55.23 9.63 57.12 9.97C59.02 10.31 60.59 11.02 61.86 12.1C62.75 12.85 63.45 13.9 63.96 15.27C64.47 16.64 64.73 17.95 64.73 19.19V30.86C64.73 32.1 64.81 33.08 64.97 33.78C65.13 34.49 65.49 35.39 66.03 36.48H56.25C55.86 35.8 55.6 35.28 55.48 34.93C55.36 34.57 55.24 34.01 55.12 33.25C53.75 34.53 52.4 35.44 51.05 35.99C49.21 36.72 47.06 37.08 44.62 37.08C41.38 37.08 38.91 36.35 37.23 34.89C35.55 33.43 34.71 31.63 34.71 29.49C34.71 27.48 35.32 25.83 36.53 24.54C37.74 23.25 39.98 22.28 43.24 21.66C47.15 20.9 49.69 20.36 50.85 20.05C52.01 19.74 53.24 19.34 54.54 18.84C54.54 17.6 54.27 16.73 53.75 16.23C53.22 15.73 52.29 15.48 50.96 15.48C49.25 15.48 47.97 15.75 47.12 16.28C46.45 16.69 45.92 17.47 45.51 18.62L45.49 18.61ZM54.53 23.93C53.1 24.43 51.6 24.87 50.05 25.25C47.93 25.8 46.59 26.34 46.03 26.87C45.45 27.42 45.16 28.04 45.16 28.74C45.16 29.54 45.45 30.19 46.02 30.69C46.59 31.2 47.43 31.45 48.54 31.45C49.65 31.45 50.78 31.18 51.78 30.63C52.78 30.08 53.49 29.42 53.91 28.63C54.33 27.84 54.54 26.82 54.54 25.56V23.94L54.53 23.93Z" fill="url(#paint1_linear_0_1)"/>
<path d="M67.4 0H77.85V36.47H67.4V0Z" fill="url(#paint2_linear_0_1)"/>
<path d="M109.21 0V36.47H99.45V32.56C98.08 34.22 96.84 35.34 95.71 35.92C94.21 36.68 92.53 37.06 90.69 37.06C86.98 37.06 84.15 35.69 82.2 32.96C80.24 30.22 79.27 26.9 79.27 22.98C79.27 18.6 80.35 15.25 82.51 12.93C84.67 10.61 87.41 9.45 90.74 9.45C92.36 9.45 93.83 9.72 95.16 10.25C96.48 10.78 97.66 11.58 98.68 12.64V0H109.21ZM98.76 23.19C98.76 21.12 98.31 19.57 97.4 18.55C96.49 17.53 95.35 17.02 93.97 17.02C92.76 17.02 91.74 17.51 90.92 18.49C90.1 19.47 89.69 21.11 89.69 23.41C89.69 25.57 90.11 27.15 90.96 28.15C91.81 29.15 92.85 29.65 94.1 29.65C95.43 29.65 96.54 29.14 97.43 28.13C98.32 27.12 98.76 25.47 98.76 23.18V23.19Z" fill="url(#paint3_linear_0_1)"/>
<path d="M141.82 25.77H120.92C121.11 27.4 121.56 28.61 122.28 29.4C123.29 30.54 124.6 31.12 126.22 31.12C127.24 31.12 128.22 30.87 129.14 30.37C129.7 30.06 130.31 29.5 130.96 28.7L141.23 29.62C139.66 32.27 137.76 34.18 135.54 35.33C133.32 36.48 130.14 37.06 125.99 37.06C122.39 37.06 119.55 36.57 117.49 35.58C115.42 34.59 113.71 33.03 112.36 30.88C111 28.73 110.32 26.21 110.32 23.31C110.32 19.18 111.68 15.84 114.41 13.28C117.13 10.73 120.89 9.45 125.69 9.45C129.58 9.45 132.66 10.02 134.91 11.17C137.16 12.31 138.88 13.97 140.06 16.14C141.24 18.31 141.83 21.14 141.83 24.62V25.76L141.82 25.77ZM131.22 20.92C131.01 18.96 130.47 17.56 129.59 16.72C128.71 15.87 127.55 15.45 126.12 15.45C124.46 15.45 123.14 16.09 122.15 17.37C121.52 18.17 121.12 19.35 120.95 20.93H131.22V20.92Z" fill="url(#paint4_linear_0_1)"/>
<path d="M142.78 10.05H152.54V14.38C153.48 12.51 154.45 11.22 155.45 10.51C156.45 9.81001 157.68 9.45 159.15 9.45C160.62 9.45 162.37 9.91 164.19 10.84L160.96 18.05C159.73 17.55 158.76 17.3 158.04 17.3C156.67 17.3 155.62 17.85 154.86 18.94C153.78 20.48 153.25 23.37 153.25 27.6V36.46H142.77V10.04L142.78 10.05Z" fill="url(#paint5_linear_0_1)"/>
<path d="M78.52 32.39C75.7 32.39 72.88 32.03 70.06 31.2C66.97 30.29 64.04 28.82 61.2 27.39C57.84 25.7 54.35 23.96 50.65 23.18C46.74 22.36 42.63 22.62 38.66 22.87C37.84 22.92 37.02 22.97 36.2 23.02C24.06 23.66 11.87 22.24 0 18.79L0.210007 18.08C12.01 21.51 24.1 22.92 36.17 22.28C36.98 22.24 37.8 22.18 38.62 22.13C42.64 21.87 46.8 21.61 50.81 22.45C54.61 23.25 58.13 25.02 61.54 26.72C64.35 28.13 67.25 29.58 70.28 30.48C82.16 33.99 94.28 28.87 105.99 23.91C117.25 19.14 128.89 14.22 140.6 16.64C144.48 17.44 148.17 19.04 151.74 20.59C152.99 21.13 154.28 21.69 155.56 22.21C172.45 29.04 191.38 29.94 208.85 24.76C211.38 24.01 213.94 23.12 216.4 22.25C222.07 20.27 227.92 18.22 234.01 17.72C244.54 16.85 255.23 20.32 265.59 23.68C277.66 27.59 290.14 31.63 302.02 28.56C307.06 27.26 311.59 24.5 315.97 21.83L345.16 4.05C345.57 3.8 345.77 3.08 345.69 2.91C345.7 2.93 345.74 2.96001 345.77 2.96001L345.46 2.28C345.93 2.11 346.24 2.34 346.36 2.59C346.64 3.17 346.2 4.28001 345.55 4.68001L316.36 22.46C311.94 25.16 307.36 27.94 302.21 29.27C290.12 32.39 277.53 28.32 265.36 24.38C255.08 21.05 244.44 17.61 234.07 18.46C228.08 18.95 222.27 20.99 216.65 22.95C214.17 23.82 211.61 24.71 209.06 25.47C191.43 30.7 172.33 29.78 155.28 22.9C153.99 22.38 152.7 21.82 151.45 21.28C147.91 19.75 144.26 18.16 140.45 17.37C128.96 14.99 117.43 19.87 106.28 24.59C97.19 28.44 87.87 32.38 78.53 32.38L78.52 32.39Z" fill="white"/>
<path d="M338.21 22.97C336.81 22.97 335.47 22.66 334.39 21.87C333.41 21.15 332.7 20.16 332.11 19.29C331.6 18.54 331.05 17.68 330.62 16.75C330.23 16.61 329.83 16.5 329.43 16.41C326.67 15.8 325.36 16.68 322.19 18.83L321.34 19.4L320.93 18.79L321.77 18.22C325.02 16.01 326.51 15 329.58 15.69C329.8 15.74 330.02 15.8 330.24 15.86C330.21 15.77 330.18 15.69 330.15 15.6C329.22 12.64 329.42 9.32 330.7 6.73C332.03 4.03 334.8 1.84 337.82 1.69C338.3 1.46 338.82 1.29 339.33 1.16C339.8 0.960004 340.28 0.840002 340.91 0.830002C341.84 0.670002 342.73 0.930003 343.42 1.19C348.16 2.95 351.61 8.02 351.62 13.22C351.62 15.38 351.09 17.4 350.08 19.04C348.97 20.85 347.25 22.17 345.39 22.67C344.48 22.91 343.61 22.94 342.81 22.75C342.47 22.67 342.13 22.55 341.78 22.38C340.65 22.74 339.41 22.97 338.21 22.97ZM331.64 17.14C331.97 17.75 332.34 18.32 332.72 18.87C333.28 19.69 333.94 20.62 334.83 21.27C336.13 22.23 337.91 22.39 339.64 22.13C335.57 21.57 333.58 19.66 332.95 17.72C332.51 17.51 332.08 17.31 331.64 17.13V17.14ZM342.84 22C342.84 22 342.93 22.02 342.98 22.03C343.65 22.19 344.42 22.16 345.21 21.95C346.9 21.51 348.45 20.3 349.46 18.65C350.4 17.12 350.9 15.24 350.89 13.21C350.89 11.02 350.24 8.85 349.13 6.98C350.2 9.76 350.08 13.1 348.78 16.03C347.85 18.14 346.43 19.87 344.67 21.03C344.16 21.37 343.53 21.7 342.84 21.98V22ZM340.03 20.2C340.33 20.49 340.65 20.77 340.99 21.02C341.29 21.24 341.58 21.43 341.86 21.59C342.79 21.27 343.63 20.85 344.27 20.43C345.88 19.37 347.25 17.7 348.11 15.75C349.41 12.8 349.45 9.43 348.22 6.73C347.12 4.31 344.6 1.52001 341.01 1.57001C340.57 1.65001 340.11 1.74001 339.65 1.85001C340 1.93001 340.36 2.05 340.71 2.19C342.63 2.99 344.1 4.63 344.97 6.94C346.19 10.19 346.05 14.46 344.62 17.33C344.03 18.51 343.38 19.27 342.57 19.71C341.92 20.07 341.1 20.23 340.14 20.21C340.1 20.21 340.06 20.21 340.03 20.21V20.2ZM333.97 18.23C334.81 19.76 336.78 21.14 340.36 21.48C339.83 21.07 339.34 20.6 338.89 20.08C337.19 19.78 335.56 19 333.97 18.23ZM339.28 19.39C339.57 19.43 339.87 19.46 340.17 19.47C341.01 19.49 341.69 19.35 342.23 19.06C342.9 18.69 343.46 18.04 343.97 17C345.31 14.3 345.44 10.27 344.29 7.2C343.74 5.72 342.62 3.78 340.44 2.87C339.84 2.62 339.22 2.48001 338.62 2.43001C337.73 3.13001 337.12 4.40001 336.75 6.29001C336.18 9.23001 336.2 11.95 336.81 14.39C337.29 16.3 338.15 18.01 339.29 19.38L339.28 19.39ZM333.57 17.21C333.76 17.3 333.95 17.39 334.14 17.48C335.45 18.12 336.8 18.77 338.16 19.15C337.22 17.83 336.51 16.28 336.08 14.58C335.44 12.04 335.42 9.2 336.01 6.16C336.26 4.88 336.62 3.85 337.11 3.05C337.03 3.13 336.95 3.21001 336.88 3.29001C335.57 4.80001 334.61 6.71 334.04 8.98C333.74 10.17 333.54 11.45 333.43 12.91C333.37 13.74 333.4 14.53 333.43 15.37C333.44 15.71 333.46 16.06 333.46 16.41C333.46 16.67 333.5 16.95 333.56 17.22L333.57 17.21ZM331.17 16.16C331.7 16.36 332.23 16.59 332.76 16.83C332.74 16.69 332.74 16.56 332.73 16.42C332.73 16.08 332.71 15.74 332.7 15.4C332.67 14.58 332.63 13.73 332.7 12.86C332.81 11.36 333.02 10.04 333.33 8.8C333.94 6.42 334.95 4.4 336.33 2.81C336.37 2.76 336.41 2.72 336.45 2.67C334.28 3.29 332.4 5.02 331.39 7.06C330.19 9.48 330 12.59 330.88 15.38C330.96 15.65 331.06 15.91 331.17 16.16Z" fill="url(#paint6_linear_0_1)"/>
<defs>
<linearGradient id="paint0_linear_0_1" x1="5.6" y1="23.26" x2="164.02" y2="23.26" gradientUnits="userSpaceOnUse">
<stop stop-color="#FDDA31"/>
<stop offset="0.09" stop-color="#FCC147"/>
<stop offset="0.28" stop-color="#FA8481"/>
<stop offset="0.52" stop-color="#F82CD5"/>
<stop offset="0.76" stop-color="#977CD9"/>
<stop offset="1" stop-color="#36CEDE"/>
</linearGradient>
<linearGradient id="paint1_linear_0_1" x1="5.6" y1="-177.81" x2="164.02" y2="-177.81" gradientUnits="userSpaceOnUse">
<stop stop-color="#FDDA31"/>
<stop offset="0.09" stop-color="#FCC147"/>
<stop offset="0.28" stop-color="#FA8481"/>
<stop offset="0.52" stop-color="#F82CD5"/>
<stop offset="0.76" stop-color="#977CD9"/>
<stop offset="1" stop-color="#36CEDE"/>
</linearGradient>
<linearGradient id="paint2_linear_0_1" x1="5.60012" y1="18.24" x2="164.02" y2="18.24" gradientUnits="userSpaceOnUse">
<stop stop-color="#FDDA31"/>
<stop offset="0.09" stop-color="#FCC147"/>
<stop offset="0.28" stop-color="#FA8481"/>
<stop offset="0.52" stop-color="#F82CD5"/>
<stop offset="0.76" stop-color="#977CD9"/>
<stop offset="1" stop-color="#36CEDE"/>
</linearGradient>
<linearGradient id="paint3_linear_0_1" x1="5.6" y1="18.53" x2="164.02" y2="18.53" gradientUnits="userSpaceOnUse">
<stop stop-color="#FDDA31"/>
<stop offset="0.09" stop-color="#FCC147"/>
<stop offset="0.28" stop-color="#FA8481"/>
<stop offset="0.52" stop-color="#F82CD5"/>
<stop offset="0.76" stop-color="#977CD9"/>
<stop offset="1" stop-color="#36CEDE"/>
</linearGradient>
<linearGradient id="paint4_linear_0_1" x1="5.59996" y1="-177.81" x2="164.02" y2="-177.81" gradientUnits="userSpaceOnUse">
<stop stop-color="#FDDA31"/>
<stop offset="0.09" stop-color="#FCC147"/>
<stop offset="0.28" stop-color="#FA8481"/>
<stop offset="0.52" stop-color="#F82CD5"/>
<stop offset="0.76" stop-color="#977CD9"/>
<stop offset="1" stop-color="#36CEDE"/>
</linearGradient>
<linearGradient id="paint5_linear_0_1" x1="-248.61" y1="22.96" x2="164.02" y2="22.96" gradientUnits="userSpaceOnUse">
<stop stop-color="#FDDA31"/>
<stop offset="0.09" stop-color="#FCC147"/>
<stop offset="0.28" stop-color="#FA8481"/>
<stop offset="0.52" stop-color="#F82CD5"/>
<stop offset="0.76" stop-color="#977CD9"/>
<stop offset="1" stop-color="#36CEDE"/>
</linearGradient>
<linearGradient id="paint6_linear_0_1" x1="320.949" y1="11.5397" x2="351.659" y2="11.483" gradientUnits="userSpaceOnUse">
<stop stop-color="#FDDA31"/>
<stop offset="0.09" stop-color="#FCC147"/>
<stop offset="0.28" stop-color="#FA8481"/>
<stop offset="0.52" stop-color="#F82CD5"/>
<stop offset="0.76" stop-color="#977CD9"/>
<stop offset="1" stop-color="#36CEDE"/>
</linearGradient>
</defs>
</svg>
