<svg width="318" height="294" viewBox="0 0 318 294" fill="none" xmlns="http://www.w3.org/2000/svg">
<path d="M141.72 285.491C136.66 287.741 131.68 289.381 126.72 290.451C115.28 292.901 102.84 292.531 89.7202 289.351C62.8902 282.881 38.3002 265.441 22.2602 241.521C7.65016 219.761 -0.0398447 193.121 0.000155253 164.501C0.100155 95.6009 49.7801 28.671 118.11 5.36095C127.88 2.03095 140.75 -1.51905 153.99 0.680953C162.88 0.880953 169.78 2.41095 176.55 5.06095C184.01 6.82095 191.48 9.04095 198.48 12.091C241.98 13.991 281.82 42.9409 301.01 78.6209C319.46 112.901 322.43 156.741 308.97 195.901C302.87 213.761 292.23 229.631 281.04 244.771C272.53 256.281 262.27 269.361 248.16 278.891C232.8 289.271 213.48 293.381 193.44 293.381C176.02 293.381 158.07 290.281 141.73 285.491H141.72ZM268.85 224.091C259.74 250.151 230.12 275.881 169.33 282.731C195.58 286.841 222.9 285.021 242.68 271.651C255.57 262.941 265.25 250.581 273.32 239.671C278.97 232.031 284.64 224.001 289.58 215.511C282.72 218.131 275.84 221.041 268.86 224.091H268.85ZM100.34 267.891C75.0502 252.611 54.6002 229.761 41.1902 201.831C21.5202 160.871 20.6802 113.991 38.8702 76.061C20.3802 102.191 9.47015 133.141 9.43015 164.511C9.39015 191.441 16.5802 216.411 30.2202 236.751C44.9902 258.771 67.5401 274.791 92.0602 280.711C103.71 283.531 114.67 283.891 124.64 281.751C125.75 281.511 126.86 281.241 127.97 280.941C117.47 277.051 108.03 272.541 100.34 267.901V267.891ZM165.44 256.711C151.87 256.941 140.01 254.821 130.66 250.171C119.02 244.371 109.68 234.421 101.27 218.861C81.0802 181.511 78.7802 125.611 95.6702 82.931C108.07 51.591 129.47 29.391 157.55 18.711C163.15 16.581 168.76 14.991 174.38 13.891C174.07 13.761 173.76 13.641 173.46 13.521C166.64 11.961 159.72 10.751 153.05 9.59095C101.62 9.02095 64.1602 46.081 48.1502 78.311C30.3602 114.181 30.9602 158.981 49.7702 198.151C62.2502 224.131 82.0102 246.231 105.42 260.381C114.91 266.111 127.2 271.641 140.81 275.961C145 273.881 149.29 271.331 153.73 268.281C158.89 264.731 163.81 260.831 168.47 256.601C167.46 256.651 166.44 256.681 165.42 256.711H165.44ZM183.19 255.041C176.27 262.321 168.69 268.891 160.55 274.611C214.9 270.161 244.1 250.871 256.04 229.771C232.55 240.261 208.41 250.981 183.19 255.041ZM214.4 180.221C223.28 147.911 223.58 111.751 215.31 72.741C209.95 47.471 200.95 30.501 187.9 21.121C178.99 21.701 169.99 23.591 161.07 26.981C128.78 39.251 112.49 65.8809 104.5 86.0509C88.4702 126.561 90.5902 179.511 109.67 214.801C117.15 228.641 125.22 237.371 135.05 242.281C142.96 246.211 153.14 248.051 165.21 247.791C169.6 247.691 173.99 247.321 178.36 246.731C194.96 228.491 207.41 205.691 214.39 180.231L214.4 180.221ZM262.57 206.721C262.67 202.091 262.86 197.521 263.06 192.971C263.53 181.881 263.98 171.411 263.1 160.351C261.59 141.151 258.72 124.101 254.32 108.251C245.96 78.121 232.1 52.681 213.12 32.651C211.13 30.561 208.96 28.681 206.63 26.981C214.68 37.801 220.6 52.391 224.55 70.991C233.11 111.341 232.76 148.841 223.53 182.461C217.23 205.411 206.69 226.341 192.76 243.981C213.1 239.071 233.07 230.161 252.58 221.451C255.37 220.201 258.18 218.951 261 217.701C261.99 213.991 262.5 210.311 262.57 206.711V206.721ZM300 193.151C312.71 156.191 309.95 114.891 292.61 82.671C277.69 54.951 249.41 31.561 217.09 23.731C218.14 24.681 219.16 25.671 220.14 26.701C240.13 47.791 254.69 74.461 263.43 105.981C267.97 122.371 270.94 139.931 272.5 159.681C273.42 171.251 272.94 182.471 272.47 193.331C272.29 197.821 272.09 202.331 271.99 206.901C271.94 208.961 271.78 211.041 271.49 213.141C279.48 209.741 287.56 206.531 295.7 203.771C297.3 200.311 298.74 196.771 299.98 193.151H300Z" fill="url(#paint0_linear_3_14)"/>
<defs>
<linearGradient id="paint0_linear_3_14" x1="340.79" y1="148.891" x2="-3.87984" y2="144.491" gradientUnits="userSpaceOnUse">
<stop stop-color="#FEDC31"/>
<stop offset="0.09" stop-color="#FDC347"/>
<stop offset="0.27" stop-color="#FC8682"/>
<stop offset="0.52" stop-color="#FA2CD7"/>
<stop offset="0.76" stop-color="#987CDB"/>
<stop offset="1" stop-color="#33D0E0"/>
</linearGradient>
</defs>
</svg>
