<svg width="87" height="84" viewBox="0 0 87 84" fill="none" xmlns="http://www.w3.org/2000/svg">
<path d="M44.82 0H41.98C18.7951 0 0 18.7951 0 41.98V41.99C0 65.1749 18.7951 83.97 41.98 83.97H44.82C68.0049 83.97 86.8 65.1749 86.8 41.99V41.98C86.8 18.7951 68.0049 0 44.82 0Z" fill="#FDDA31"/>
<path d="M41.03 56.93C38.05 56.44 35.19 55.16 32.41 53.9C33.82 56.43 37.28 58.74 43.7 59.27C42.74 58.58 41.84 57.8 41.02 56.93H41.03Z" fill="white"/>
<path d="M44.59 27.54C43.8 27.68 42.98 27.82 42.18 28.01C42.14 28.02 42.11 28.04 42.07 28.05C42.73 28.18 43.4 28.37 44.06 28.63C47.38 29.91 49.91 32.57 51.38 36.32C53.38 41.43 53.11 48.13 50.72 52.6C49.73 54.46 48.62 55.65 47.24 56.35C46.13 56.91 44.73 57.16 43.13 57.13C43.01 57.13 42.89 57.13 42.77 57.12C43.32 57.63 43.9 58.09 44.51 58.52C45.04 58.89 45.54 59.19 46.04 59.44C47.65 58.92 49.1 58.26 50.23 57.57C53 55.88 55.34 53.23 56.81 50.12C59.04 45.43 59.11 40.06 57 35.77C55.11 31.91 50.68 27.47 44.59 27.54Z" fill="white"/>
<path d="M57.82 50.56C56.23 53.91 53.81 56.64 50.82 58.47C49.91 59.03 48.79 59.57 47.55 60.03C47.68 60.07 47.81 60.1 47.94 60.13C49.12 60.39 50.42 60.34 51.79 60.01C54.69 59.3 57.36 57.38 59.1 54.75C60.71 52.31 61.56 49.32 61.56 46.1C61.56 42.34 60.26 38.64 58.08 35.51C60.23 40.05 60.13 45.67 57.81 50.57L57.82 50.56Z" fill="white"/>
<path d="M43.41 15.24C28.57 15.24 16.55 27.27 16.55 42.1C16.55 45.06 17.03 47.92 17.92 50.58C20.26 49.62 22.32 49.47 25.08 50.04C25.5 50.13 25.92 50.23 26.34 50.35C26.27 50.18 26.21 50.01 26.15 49.84C24.56 45.15 24.91 39.9 27.09 35.8C29.36 31.53 34.07 28.06 39.22 27.83C40.05 27.46 40.93 27.2 41.81 26.99C42.61 26.67 43.43 26.49 44.48 26.47C46.05 26.21 47.57 26.63 48.72 27.03C56.8 29.82 62.68 37.84 62.69 46.09C62.69 49.52 61.78 52.71 60.06 55.31C58.16 58.17 55.25 60.26 52.08 61.04C50.53 61.42 49.06 61.46 47.7 61.17C47.11 61.04 46.52 60.85 45.93 60.58C44 61.15 41.87 61.53 39.81 61.53C37.44 61.53 35.15 61.04 33.34 59.8C31.67 58.66 30.46 57.09 29.45 55.71C28.58 54.51 27.63 53.14 26.9 51.66C26.21 51.44 25.53 51.25 24.83 51.11C22.31 50.59 20.44 50.72 18.31 51.6C18.29 51.6 18.28 51.61 18.26 51.62C22.1 61.77 31.9 68.99 43.4 68.99C58.24 68.99 70.26 56.96 70.26 42.13C70.26 27.3 58.23 15.27 43.4 15.27L43.41 15.24Z" fill="white"/>
<path d="M32.61 39.35C32.09 41.25 31.75 43.29 31.57 45.59C31.47 46.91 31.52 48.17 31.57 49.5C31.59 50.04 31.62 50.59 31.63 51.15C31.63 51.58 31.7 52.02 31.82 52.47C32.15 52.62 32.49 52.77 32.82 52.92C35.13 53.96 37.49 55.03 39.9 55.62C38.25 53.51 37.01 51 36.26 48.25C35.17 44.22 35.13 39.73 36.14 34.9C36.61 32.67 37.31 30.92 38.26 29.63C37.98 29.83 37.73 30.06 37.49 30.31C35.25 32.71 33.61 35.75 32.62 39.36L32.61 39.35Z" fill="white"/>
<path d="M28.09 36.29C26.04 40.15 25.71 45.09 27.22 49.52C27.37 49.95 27.54 50.38 27.73 50.79C28.69 51.12 29.65 51.51 30.59 51.91C30.56 51.66 30.54 51.41 30.53 51.16C30.52 50.61 30.5 50.07 30.47 49.54C30.41 48.24 30.36 46.9 30.47 45.51C30.66 43.15 31.01 41.04 31.54 39.08C32.57 35.31 34.3 32.11 36.66 29.59C36.78 29.47 36.9 29.35 37.02 29.23C33.2 30.17 29.85 32.97 28.09 36.29Z" fill="white"/>
<path d="M30.9 53.22C30.07 52.85 29.26 52.51 28.45 52.19C29.03 53.21 29.7 54.17 30.37 55.08C31.32 56.39 32.47 57.87 33.99 58.91C36.33 60.51 39.56 60.73 42.67 60.24C35.48 59.42 31.98 56.34 30.9 53.22Z" fill="white"/>
<path d="M37.23 35.1C36.25 39.77 36.29 44.1 37.34 47.97C38.17 51.02 39.64 53.75 41.6 55.93C42.12 56 42.64 56.05 43.16 56.06C44.59 56.09 45.79 55.87 46.73 55.4C47.89 54.81 48.85 53.77 49.73 52.11C51.99 47.88 52.24 41.54 50.34 36.69C49.4 34.27 47.47 31.09 43.65 29.62C42.6 29.21 41.53 28.99 40.48 28.92C38.94 30.04 37.87 32.08 37.24 35.1H37.23Z" fill="white"/>
</svg>
