<svg width="87" height="84" viewBox="0 0 87 84" fill="none" xmlns="http://www.w3.org/2000/svg">
<path d="M44.82 0H41.98C18.7951 0 0 18.7951 0 41.98V41.99C0 65.1749 18.7951 83.97 41.98 83.97H44.82C68.0049 83.97 86.8 65.1749 86.8 41.99V41.98C86.8 18.7951 68.0049 0 44.82 0Z" fill="#0AF1A5"/>
<path d="M40.16 56.93C37.18 56.44 34.32 55.16 31.54 53.9C32.95 56.43 36.41 58.74 42.83 59.27C41.87 58.58 40.97 57.8 40.15 56.93H40.16Z" fill="white"/>
<path d="M43.72 27.54C42.93 27.68 42.11 27.82 41.31 28.01C41.27 28.02 41.24 28.04 41.2 28.05C41.86 28.18 42.53 28.37 43.19 28.63C46.51 29.91 49.04 32.57 50.51 36.32C52.51 41.43 52.24 48.13 49.85 52.6C48.86 54.46 47.75 55.65 46.37 56.35C45.26 56.91 43.86 57.16 42.26 57.13C42.14 57.13 42.02 57.13 41.9 57.12C42.45 57.63 43.03 58.09 43.64 58.52C44.17 58.89 44.67 59.19 45.17 59.44C46.78 58.92 48.23 58.26 49.36 57.57C52.13 55.88 54.47 53.23 55.94 50.12C58.17 45.43 58.24 40.06 56.13 35.77C54.24 31.91 49.81 27.47 43.72 27.54Z" fill="white"/>
<path d="M56.95 50.56C55.36 53.91 52.94 56.64 49.95 58.47C49.04 59.03 47.92 59.57 46.68 60.03C46.81 60.07 46.94 60.1 47.07 60.13C48.25 60.39 49.55 60.34 50.92 60.01C53.82 59.3 56.49 57.38 58.23 54.75C59.84 52.31 60.69 49.32 60.69 46.1C60.69 42.34 59.39 38.64 57.21 35.51C59.36 40.05 59.26 45.67 56.94 50.57L56.95 50.56Z" fill="white"/>
<path d="M42.53 15.24C27.69 15.24 15.67 27.27 15.67 42.1C15.67 45.06 16.15 47.92 17.04 50.58C19.38 49.62 21.44 49.47 24.2 50.04C24.62 50.13 25.04 50.23 25.46 50.35C25.39 50.18 25.33 50.01 25.27 49.84C23.68 45.15 24.03 39.9 26.21 35.8C28.48 31.53 33.19 28.06 38.34 27.83C39.17 27.46 40.05 27.2 40.93 26.99C41.73 26.67 42.55 26.49 43.6 26.47C45.17 26.21 46.69 26.63 47.84 27.03C55.92 29.82 61.8 37.84 61.81 46.09C61.81 49.52 60.9 52.71 59.18 55.31C57.28 58.17 54.37 60.26 51.2 61.04C49.65 61.42 48.18 61.46 46.82 61.17C46.23 61.04 45.64 60.85 45.05 60.58C43.12 61.15 40.99 61.53 38.93 61.53C36.56 61.53 34.27 61.04 32.46 59.8C30.79 58.66 29.58 57.09 28.57 55.71C27.7 54.51 26.75 53.14 26.02 51.66C25.33 51.44 24.65 51.25 23.95 51.11C21.43 50.59 19.56 50.72 17.43 51.6C17.41 51.6 17.4 51.61 17.38 51.62C21.22 61.77 31.02 68.99 42.52 68.99C57.36 68.99 69.38 56.96 69.38 42.13C69.38 27.3 57.35 15.27 42.52 15.27L42.53 15.24Z" fill="white"/>
<path d="M31.74 39.35C31.22 41.25 30.88 43.29 30.7 45.59C30.6 46.91 30.65 48.17 30.7 49.5C30.72 50.04 30.75 50.59 30.76 51.15C30.76 51.58 30.83 52.02 30.95 52.47C31.28 52.62 31.62 52.77 31.95 52.92C34.26 53.96 36.62 55.03 39.03 55.62C37.38 53.51 36.14 51 35.39 48.25C34.3 44.22 34.26 39.73 35.27 34.9C35.74 32.67 36.44 30.92 37.39 29.63C37.11 29.83 36.86 30.06 36.62 30.31C34.38 32.71 32.74 35.75 31.75 39.36L31.74 39.35Z" fill="white"/>
<path d="M27.22 36.29C25.17 40.15 24.84 45.09 26.35 49.52C26.5 49.95 26.67 50.38 26.86 50.79C27.82 51.12 28.78 51.51 29.72 51.91C29.69 51.66 29.67 51.41 29.66 51.16C29.65 50.61 29.63 50.07 29.6 49.54C29.54 48.24 29.49 46.9 29.6 45.51C29.79 43.15 30.14 41.04 30.67 39.08C31.7 35.31 33.43 32.11 35.79 29.59C35.91 29.47 36.03 29.35 36.15 29.23C32.33 30.17 28.98 32.97 27.22 36.29Z" fill="white"/>
<path d="M30.03 53.22C29.2 52.85 28.39 52.51 27.58 52.19C28.16 53.21 28.83 54.17 29.5 55.08C30.45 56.39 31.6 57.87 33.12 58.91C35.46 60.51 38.69 60.73 41.8 60.24C34.61 59.42 31.11 56.34 30.03 53.22Z" fill="white"/>
<path d="M36.36 35.1C35.38 39.77 35.42 44.1 36.47 47.97C37.3 51.02 38.77 53.75 40.73 55.93C41.25 56 41.77 56.05 42.29 56.06C43.72 56.09 44.92 55.87 45.86 55.4C47.02 54.81 47.98 53.77 48.86 52.11C51.12 47.88 51.37 41.54 49.47 36.69C48.53 34.27 46.6 31.09 42.78 29.62C41.73 29.21 40.66 28.99 39.61 28.92C38.07 30.04 37 32.08 36.37 35.1H36.36Z" fill="white"/>
</svg>
