<svg width="87" height="84" viewBox="0 0 87 84" fill="none" xmlns="http://www.w3.org/2000/svg">
<path d="M44.82 0H41.98C18.7951 0 0 18.7951 0 41.98V41.99C0 65.1749 18.7951 83.97 41.98 83.97H44.82C68.0049 83.97 86.8 65.1749 86.8 41.99V41.98C86.8 18.7951 68.0049 0 44.82 0Z" fill="#37CCDC"/>
<path d="M40.87 56.93C37.89 56.44 35.03 55.16 32.25 53.9C33.66 56.43 37.12 58.74 43.54 59.27C42.58 58.58 41.68 57.8 40.86 56.93H40.87Z" fill="white"/>
<path d="M44.44 27.54C43.65 27.68 42.83 27.82 42.03 28.01C41.99 28.02 41.96 28.04 41.92 28.05C42.58 28.18 43.25 28.37 43.91 28.63C47.23 29.91 49.76 32.57 51.23 36.32C53.23 41.43 52.96 48.13 50.57 52.6C49.58 54.46 48.47 55.65 47.09 56.35C45.98 56.91 44.58 57.16 42.98 57.13C42.86 57.13 42.74 57.13 42.62 57.12C43.17 57.63 43.75 58.09 44.36 58.52C44.89 58.89 45.39 59.19 45.89 59.44C47.5 58.92 48.95 58.26 50.08 57.57C52.85 55.88 55.19 53.23 56.66 50.12C58.89 45.43 58.96 40.06 56.85 35.77C54.96 31.91 50.53 27.47 44.44 27.54Z" fill="white"/>
<path d="M57.67 50.56C56.08 53.91 53.66 56.64 50.67 58.47C49.76 59.03 48.64 59.57 47.4 60.03C47.53 60.07 47.66 60.1 47.79 60.13C48.97 60.39 50.27 60.34 51.64 60.01C54.54 59.3 57.21 57.38 58.95 54.75C60.56 52.31 61.41 49.32 61.41 46.1C61.41 42.34 60.11 38.64 57.93 35.51C60.08 40.05 59.98 45.67 57.66 50.57L57.67 50.56Z" fill="white"/>
<path d="M43.25 15.24C28.41 15.24 16.39 27.27 16.39 42.1C16.39 45.06 16.87 47.92 17.76 50.58C20.1 49.62 22.16 49.47 24.92 50.04C25.34 50.13 25.76 50.23 26.18 50.35C26.11 50.18 26.05 50.01 25.99 49.84C24.4 45.15 24.75 39.9 26.93 35.8C29.2 31.53 33.91 28.06 39.06 27.83C39.89 27.46 40.77 27.2 41.65 26.99C42.45 26.67 43.27 26.49 44.32 26.47C45.89 26.21 47.41 26.63 48.56 27.03C56.64 29.82 62.52 37.84 62.53 46.09C62.53 49.52 61.62 52.71 59.9 55.31C58 58.17 55.09 60.26 51.92 61.04C50.37 61.42 48.9 61.46 47.54 61.17C46.95 61.04 46.36 60.85 45.77 60.58C43.84 61.15 41.71 61.53 39.65 61.53C37.28 61.53 34.99 61.04 33.18 59.8C31.51 58.66 30.3 57.09 29.29 55.71C28.42 54.51 27.47 53.14 26.74 51.66C26.05 51.44 25.37 51.25 24.67 51.11C22.15 50.59 20.28 50.72 18.15 51.6C18.13 51.6 18.12 51.61 18.1 51.62C21.94 61.77 31.74 68.99 43.24 68.99C58.08 68.99 70.1 56.96 70.1 42.13C70.1 27.3 58.07 15.27 43.24 15.27L43.25 15.24Z" fill="white"/>
<path d="M32.46 39.35C31.94 41.25 31.6 43.29 31.42 45.59C31.32 46.91 31.37 48.17 31.42 49.5C31.44 50.04 31.47 50.59 31.48 51.15C31.48 51.58 31.55 52.02 31.67 52.47C32 52.62 32.34 52.77 32.67 52.92C34.98 53.96 37.34 55.03 39.75 55.62C38.1 53.51 36.86 51 36.11 48.25C35.02 44.22 34.98 39.73 35.99 34.9C36.46 32.67 37.16 30.92 38.11 29.63C37.83 29.83 37.58 30.06 37.34 30.31C35.1 32.71 33.46 35.75 32.47 39.36L32.46 39.35Z" fill="white"/>
<path d="M27.93 36.29C25.88 40.15 25.55 45.09 27.06 49.52C27.21 49.95 27.38 50.38 27.57 50.79C28.53 51.12 29.49 51.51 30.43 51.91C30.4 51.66 30.38 51.41 30.37 51.16C30.36 50.61 30.34 50.07 30.31 49.54C30.25 48.24 30.2 46.9 30.31 45.51C30.5 43.15 30.85 41.04 31.38 39.08C32.41 35.31 34.14 32.11 36.5 29.59C36.62 29.47 36.74 29.35 36.86 29.23C33.04 30.17 29.69 32.97 27.93 36.29Z" fill="white"/>
<path d="M30.74 53.22C29.91 52.85 29.1 52.51 28.29 52.19C28.87 53.21 29.54 54.17 30.21 55.08C31.16 56.39 32.31 57.87 33.83 58.91C36.17 60.51 39.4 60.73 42.51 60.24C35.32 59.42 31.82 56.34 30.74 53.22Z" fill="white"/>
<path d="M37.07 35.1C36.09 39.77 36.13 44.1 37.18 47.97C38.01 51.02 39.48 53.75 41.44 55.93C41.96 56 42.48 56.05 43 56.06C44.43 56.09 45.63 55.87 46.57 55.4C47.73 54.81 48.69 53.77 49.57 52.11C51.83 47.88 52.08 41.54 50.18 36.69C49.24 34.27 47.31 31.09 43.49 29.62C42.44 29.21 41.37 28.99 40.32 28.92C38.78 30.04 37.71 32.08 37.08 35.1H37.07Z" fill="white"/>
</svg>
