<svg width="87" height="84" viewBox="0 0 87 84" fill="none" xmlns="http://www.w3.org/2000/svg">
<path d="M44.82 0H41.98C18.7951 0 0 18.7951 0 41.98V41.99C0 65.1749 18.7951 83.97 41.98 83.97H44.82C68.0049 83.97 86.8 65.1749 86.8 41.99V41.98C86.8 18.7951 68.0049 0 44.82 0Z" fill="#F62CD3"/>
<path d="M41.58 56.93C38.6 56.44 35.74 55.16 32.96 53.9C34.37 56.43 37.83 58.74 44.25 59.27C43.29 58.58 42.39 57.8 41.57 56.93H41.58Z" fill="white"/>
<path d="M45.15 27.54C44.36 27.68 43.54 27.82 42.74 28.01C42.7 28.02 42.67 28.04 42.63 28.05C43.29 28.18 43.96 28.37 44.62 28.63C47.94 29.91 50.47 32.57 51.94 36.32C53.94 41.43 53.67 48.13 51.28 52.6C50.29 54.46 49.18 55.65 47.8 56.35C46.69 56.91 45.29 57.16 43.69 57.13C43.57 57.13 43.45 57.13 43.33 57.12C43.88 57.63 44.46 58.09 45.07 58.52C45.6 58.89 46.1 59.19 46.6 59.44C48.21 58.92 49.66 58.26 50.79 57.57C53.56 55.88 55.9 53.23 57.37 50.12C59.6 45.43 59.67 40.06 57.56 35.77C55.67 31.91 51.24 27.47 45.15 27.54Z" fill="white"/>
<path d="M58.38 50.56C56.79 53.91 54.37 56.64 51.38 58.47C50.47 59.03 49.35 59.57 48.11 60.03C48.24 60.07 48.37 60.1 48.5 60.13C49.68 60.39 50.98 60.34 52.35 60.01C55.25 59.3 57.92 57.38 59.66 54.75C61.27 52.31 62.12 49.32 62.12 46.1C62.12 42.34 60.82 38.64 58.64 35.51C60.79 40.05 60.69 45.67 58.37 50.57L58.38 50.56Z" fill="white"/>
<path d="M43.96 15.24C29.12 15.24 17.1 27.27 17.1 42.1C17.1 45.06 17.58 47.92 18.47 50.58C20.81 49.62 22.87 49.47 25.63 50.04C26.05 50.13 26.47 50.23 26.89 50.35C26.82 50.18 26.76 50.01 26.7 49.84C25.11 45.15 25.46 39.9 27.64 35.8C29.91 31.53 34.62 28.06 39.77 27.83C40.6 27.46 41.48 27.2 42.36 26.99C43.16 26.67 43.98 26.49 45.03 26.47C46.6 26.21 48.12 26.63 49.27 27.03C57.35 29.82 63.23 37.84 63.24 46.09C63.24 49.52 62.33 52.71 60.61 55.31C58.71 58.17 55.8 60.26 52.63 61.04C51.08 61.42 49.61 61.46 48.25 61.17C47.66 61.04 47.07 60.85 46.48 60.58C44.55 61.15 42.42 61.53 40.36 61.53C37.99 61.53 35.7 61.04 33.89 59.8C32.22 58.66 31.01 57.09 30 55.71C29.13 54.51 28.18 53.14 27.45 51.66C26.76 51.44 26.08 51.25 25.38 51.11C22.86 50.59 20.99 50.72 18.86 51.6C18.84 51.6 18.83 51.61 18.81 51.62C22.65 61.77 32.45 68.99 43.95 68.99C58.79 68.99 70.81 56.96 70.81 42.13C70.81 27.3 58.78 15.27 43.95 15.27L43.96 15.24Z" fill="white"/>
<path d="M33.17 39.35C32.65 41.25 32.31 43.29 32.13 45.59C32.03 46.91 32.08 48.17 32.13 49.5C32.15 50.04 32.18 50.59 32.19 51.15C32.19 51.58 32.26 52.02 32.38 52.47C32.71 52.62 33.05 52.77 33.38 52.92C35.69 53.96 38.05 55.03 40.46 55.62C38.81 53.51 37.57 51 36.82 48.25C35.73 44.22 35.69 39.73 36.7 34.9C37.17 32.67 37.87 30.92 38.82 29.63C38.54 29.83 38.29 30.06 38.05 30.31C35.81 32.71 34.17 35.75 33.18 39.36L33.17 39.35Z" fill="white"/>
<path d="M28.64 36.29C26.59 40.15 26.26 45.09 27.77 49.52C27.92 49.95 28.09 50.38 28.28 50.79C29.24 51.12 30.2 51.51 31.14 51.91C31.11 51.66 31.09 51.41 31.08 51.16C31.07 50.61 31.05 50.07 31.02 49.54C30.96 48.24 30.91 46.9 31.02 45.51C31.21 43.15 31.56 41.04 32.09 39.08C33.12 35.31 34.8499 32.11 37.2099 29.59C37.3299 29.47 37.45 29.35 37.57 29.23C33.75 30.17 30.4 32.97 28.64 36.29Z" fill="white"/>
<path d="M31.45 53.22C30.62 52.85 29.81 52.51 29 52.19C29.58 53.21 30.25 54.17 30.92 55.08C31.87 56.39 33.02 57.87 34.54 58.91C36.88 60.51 40.11 60.73 43.22 60.24C36.03 59.42 32.53 56.34 31.45 53.22Z" fill="white"/>
<path d="M37.78 35.1C36.8 39.77 36.84 44.1 37.89 47.97C38.72 51.02 40.19 53.75 42.15 55.93C42.67 56 43.19 56.05 43.71 56.06C45.14 56.09 46.34 55.87 47.28 55.4C48.44 54.81 49.4 53.77 50.28 52.11C52.54 47.88 52.79 41.54 50.89 36.69C49.95 34.27 48.02 31.09 44.2 29.62C43.15 29.21 42.08 28.99 41.03 28.92C39.49 30.04 38.42 32.08 37.79 35.1H37.78Z" fill="white"/>
</svg>
