<svg width="128" height="128" viewBox="0 0 128 128" fill="none" xmlns="http://www.w3.org/2000/svg">
<path d="M79.0647 38.1097C82.3648 40.5417 84.6386 44.1475 85.8898 48.9377L125.814 43.5501C122.236 31.7556 116.146 22.6461 107.606 16.1549C97.6773 21.9221 87.7384 29.3692 77.8382 37.3857C78.2423 37.6317 78.6852 37.8356 79.0612 38.1097H79.0647Z" fill="url(#paint0_linear_105_8)"/>
<path d="M42.2824 62.9428C42.5917 53.7771 44.725 46.815 48.7314 42.1127C53.0753 37.0167 58.7582 34.4687 65.7766 34.4687C69.1785 34.4687 72.1026 34.9783 74.6611 35.8886C84.5437 27.8545 94.6548 20.2457 104.875 14.2219C95.428 8.09272 82.0028 5 64.5254 5C51.5992 5 40.9996 6.7256 32.7301 10.1698C27.5217 12.3487 22.4468 15.6734 17.5125 20.1403C12.5747 24.6071 8.68422 29.6539 5.83751 35.2841C1.94701 42.9526 0 52.5541 0 64.0921C0 73.5916 1.1914 81.471 3.55663 87.7443C15.7448 83.3161 28.7342 73.9607 42.2824 62.9428Z" fill="url(#paint1_linear_105_8)"/>
<path d="M79.1702 89.0728C75.3816 91.9617 70.7073 93.4026 65.1475 93.4026C58.477 93.4026 52.9839 91.0128 48.6752 86.2331C44.6547 81.7733 42.5355 75.3594 42.2684 67.0407C29.2825 77.4856 16.7604 86.3034 4.80075 90.7C7.99539 97.3775 12.406 103.194 18.0292 108.149C23.6593 113.112 30.3825 116.696 38.2021 118.911C46.0218 121.125 55.8025 122.235 67.5443 122.235C79.2861 122.235 89.7311 120.51 97.6175 117.058C105.504 113.607 111.985 108.768 117.056 102.537C122.131 96.3056 125.779 88.9322 128 80.4097L87.6611 75.7636C85.7879 81.7487 82.9517 86.1839 79.1666 89.0693L79.1702 89.0728Z" fill="url(#paint2_linear_105_8)"/>
<defs>
<linearGradient id="paint0_linear_105_8" x1="2.82913" y1="32.5463" x2="118.374" y2="32.5463" gradientUnits="userSpaceOnUse">
<stop stop-color="#FEDC31"/>
<stop offset="0.09" stop-color="#FDC347"/>
<stop offset="0.27" stop-color="#FC8682"/>
<stop offset="0.52" stop-color="#FA2CD7"/>
<stop offset="0.76" stop-color="#987CDB"/>
<stop offset="1" stop-color="#33D0E0"/>
</linearGradient>
<linearGradient id="paint1_linear_105_8" x1="2.82914" y1="46.3722" x2="118.374" y2="46.3722" gradientUnits="userSpaceOnUse">
<stop stop-color="#FEDC31"/>
<stop offset="0.09" stop-color="#FDC347"/>
<stop offset="0.27" stop-color="#FC8682"/>
<stop offset="0.52" stop-color="#FA2CD7"/>
<stop offset="0.76" stop-color="#987CDB"/>
<stop offset="1" stop-color="#33D0E0"/>
</linearGradient>
<linearGradient id="paint2_linear_105_8" x1="2.82914" y1="94.6397" x2="118.374" y2="94.6397" gradientUnits="userSpaceOnUse">
<stop stop-color="#FEDC31"/>
<stop offset="0.09" stop-color="#FDC347"/>
<stop offset="0.27" stop-color="#FC8682"/>
<stop offset="0.52" stop-color="#FA2CD7"/>
<stop offset="0.76" stop-color="#987CDB"/>
<stop offset="1" stop-color="#33D0E0"/>
</linearGradient>
</defs>
</svg>
