<svg width="40" height="31" viewBox="0 0 40 31" fill="none" xmlns="http://www.w3.org/2000/svg">
<path d="M9.30182 14.3198C5.13182 10.6698 5.58183 5.26983 8.57183 2.27983C11.6918 -0.830172 16.7018 -0.750169 19.7218 2.46983C22.5418 5.47983 22.9218 10.7398 18.8718 14.2698C19.1018 14.3998 19.3018 14.5298 19.5118 14.6298C25.2318 17.4898 27.9018 22.3298 28.2518 28.6598C28.3018 29.6298 27.6718 30.3298 26.8418 30.3498C26.0218 30.3798 25.4018 29.8098 25.3518 28.8398C25.2618 26.9698 24.9618 25.1598 24.2218 23.4398C22.1918 18.7598 17.8818 16.0498 13.0618 16.4298C8.78182 16.7598 4.68182 20.4198 3.44182 25.1098C3.13182 26.2698 3.03182 27.4898 2.90182 28.6998C2.78182 29.7698 2.32183 30.3498 1.46183 30.3598C0.581829 30.3598 -0.0381705 29.6898 0.00182947 28.6298C0.251829 22.4998 2.86183 17.8298 8.23183 14.8698C8.55183 14.6898 8.89182 14.5398 9.31182 14.3298L9.30182 14.3198ZM14.0118 12.9598C16.7618 12.9598 19.0318 10.6798 19.0018 7.93983C18.9818 5.19983 16.7618 2.96983 14.0718 2.96983C11.3518 2.96983 9.17183 5.16984 9.15183 7.92984C9.13183 10.6798 11.3418 12.9598 14.0118 12.9598Z" fill="white"/>
<path d="M31.3418 15.0298C32.3818 15.6798 33.4218 16.2098 34.3318 16.9198C37.0918 19.0598 38.3618 22.0598 38.8318 25.4698C38.9718 26.4798 39.0118 27.5098 39.0218 28.5298C39.0318 29.4598 38.4018 30.0598 37.5618 30.0498C36.7718 30.0398 36.2318 29.4598 36.1418 28.5698C36.0218 27.2698 35.9918 25.9398 35.7318 24.6698C34.8518 20.3798 32.0918 18.0398 27.9818 17.2298C27.1218 17.0598 26.3418 16.8698 26.2018 15.8498C26.0618 14.8198 26.7818 14.4298 27.5918 14.0898C29.4518 13.3198 30.6018 11.2298 30.3018 9.29983C29.9718 7.17983 28.3318 5.63984 26.2018 5.45984C24.9718 5.35984 24.3918 4.79984 24.4818 3.78984C24.5618 2.82984 25.3018 2.36983 26.5118 2.49983C29.5018 2.82983 31.6318 4.40983 32.7318 7.22983C33.8218 10.0498 33.2718 12.6898 31.3418 15.0398V15.0298Z" fill="white"/>
</svg>
