<svg width="27" height="29" viewBox="0 0 27 29" fill="none" xmlns="http://www.w3.org/2000/svg">
<path d="M5.3607 1.99698C7.3607 1.99698 7.23066 1.76699 7.89066 3.95699C8.36066 5.50699 8.83065 7.04698 9.31065 8.58698C9.52065 9.24698 9.43067 9.77699 8.90067 10.207C8.56067 10.477 8.26068 10.817 7.91068 11.047C7.39068 11.397 7.43069 11.767 7.67069 12.307C9.30069 16.007 11.8107 18.717 15.2007 20.487C15.6807 20.737 15.9707 20.667 16.2307 20.197C16.3207 20.027 16.4607 19.887 16.5807 19.727C17.3007 18.7936 18.1773 18.517 19.2107 18.897C20.6607 19.437 22.1107 19.997 23.5807 20.487C24.2707 20.717 24.5906 21.137 24.5606 21.917C24.5306 22.727 24.5607 23.547 24.5107 24.357C24.3407 26.907 22.4607 28.837 20.0907 28.807C14.1107 28.727 9.07066 26.287 5.07066 21.407C1.73066 17.337 0.0806499 12.517 0.000649888 7.06697C-0.0393501 4.14697 1.77066 2.11698 4.45066 2.00698C4.75066 1.99698 5.0607 2.00698 5.3607 2.00698V1.99698ZM18.2607 20.737C17.8007 21.337 17.3607 21.897 16.9507 22.477C16.6007 22.967 16.1807 23.127 15.6607 22.877C14.8307 22.477 13.9807 22.117 13.1907 21.637C9.52065 19.417 6.97066 16.117 5.45066 11.857C5.20066 11.157 5.33065 10.637 5.88065 10.197C6.29065 9.86698 6.69066 9.51698 7.07066 9.13698C7.19066 9.01698 7.32068 8.74699 7.28068 8.59699C6.85068 7.07699 6.39065 5.56698 5.94065 4.05698C5.35065 4.05698 4.84067 4.03698 4.33067 4.05698C3.02067 4.11698 1.99064 5.19698 1.93064 6.63698C1.89064 7.54698 1.91068 8.47699 2.03068 9.37699C3.07068 16.697 6.67066 21.947 12.8207 25.077C15.0907 26.227 17.5107 26.747 20.0107 26.737C21.6207 26.737 22.6507 25.567 22.6607 23.787C22.6607 23.477 22.6307 23.177 22.6607 22.867C22.7107 22.427 22.5307 22.247 22.1607 22.117C20.8707 21.677 19.5907 21.207 18.2507 20.737H18.2607Z" fill="white"/>
<path d="M26.3807 13.177C26.4007 13.857 26.0807 14.297 25.5207 14.327C24.9207 14.367 24.5607 14.037 24.5007 13.257C24.2907 10.867 23.5207 8.70698 22.1607 6.82698C20.1407 4.03698 17.5107 2.42698 14.2507 2.05698C13.5407 1.97698 13.1806 1.54698 13.2406 0.886979C13.3006 0.276979 13.7307 -0.0530261 14.4107 0.00697389C20.5807 0.546974 25.8507 6.25699 26.3507 12.957C26.3507 13.037 26.3607 13.107 26.3707 13.187L26.3807 13.177Z" fill="white"/>
<path d="M14.4807 4.12698C17.9907 4.73698 20.5807 6.88698 22.0107 10.657C22.2807 11.377 22.4207 12.167 22.5507 12.937C22.6907 13.757 22.4007 14.237 21.8307 14.317C21.2007 14.407 20.8307 14.057 20.7107 13.197C20.4507 11.407 19.7507 9.87697 18.5907 8.58697C17.3707 7.22697 15.8907 6.45696 14.1807 6.17696C13.5007 6.06696 13.1707 5.62697 13.2607 4.99697C13.3507 4.35697 13.7507 4.11698 14.4907 4.12698H14.4807Z" fill="white"/>
<path d="M14.1307 8.28697C15.7407 8.32697 17.8007 10.137 18.4507 12.027C18.5807 12.407 18.6907 12.797 18.7407 13.197C18.8207 13.737 18.6207 14.167 18.1107 14.297C17.5707 14.437 17.1107 14.267 16.9507 13.637C16.5207 11.857 15.5307 10.727 13.8807 10.287C13.3507 10.147 13.1507 9.67698 13.2507 9.10698C13.3407 8.53698 13.7107 8.32698 14.1307 8.29698V8.28697Z" fill="white"/>
</svg>
