<svg width="32" height="32" viewBox="0 0 32 32" fill="none" xmlns="http://www.w3.org/2000/svg">
<path d="M28.7242 4.62994C23.4842 1.70994 18.2342 1.50995 12.9042 3.24995C10.9642 3.87995 9.02419 4.75994 7.32419 5.89994C2.98419 8.79994 1.0842 14.2999 2.3342 19.7599C2.5542 19.5199 2.74419 19.3299 2.91419 19.1199C6.00419 15.4499 10.0142 13.3399 14.4342 11.9199C15.0842 11.7099 15.7742 11.6899 16.0142 12.5399C16.2642 13.4399 15.6342 13.7299 14.9342 13.9599C11.3742 15.1299 8.0542 16.7699 5.3642 19.5199C2.4942 22.4499 1.41421 25.9499 2.34421 30.0299C2.52421 30.8199 2.54421 31.5799 1.62421 31.7699C0.734213 31.9599 0.474204 31.1999 0.334204 30.4999C-0.135796 28.1399 -0.145784 25.7999 0.534216 23.4599C0.684216 22.9399 0.714193 22.3099 0.604193 21.7799C-0.125807 18.4099 -0.26579 15.0599 0.68421 11.7199C1.51421 8.81995 3.0242 6.31994 5.4542 4.64994C12.5442 -0.21006 20.0942 -1.53006 28.1442 1.97994C29.1842 2.42994 30.1442 3.08994 31.0742 3.75994C31.8742 4.33994 31.7942 5.17994 30.9442 5.67994C28.3842 7.17994 26.8942 9.50993 26.0042 12.2999C25.5742 13.6499 25.2642 15.0399 24.8742 16.3999C23.4442 21.4099 20.2442 24.5799 15.3442 25.9399C12.1542 26.8199 8.90419 27.1499 5.60419 26.8699C4.88419 26.8099 4.3042 26.5899 4.3642 25.7299C4.4242 24.8499 5.0642 24.7599 5.7642 24.7899C8.8342 24.9199 11.8842 24.7799 14.8742 23.9199C18.9242 22.7499 21.6342 20.1699 22.8442 15.9999C22.9842 15.5099 23.1542 15.0299 23.2642 14.5299C24.1142 10.7299 25.4842 7.21994 28.7442 4.61994L28.7242 4.62994Z" fill="white"/>
</svg>
