<svg width="27" height="37" viewBox="0 0 27 37" fill="none" xmlns="http://www.w3.org/2000/svg">
<path d="M26.4998 27.76C26.6198 28.89 26.7497 30 26.8397 31.11C26.8697 31.49 26.8697 31.89 26.7397 32.25C26.4197 33.12 25.3898 33.67 24.1598 33.68C22.8198 33.69 21.4897 33.68 20.1497 33.68C19.9997 33.68 19.8598 33.68 19.6698 33.68C19.6598 33.81 19.6398 33.92 19.6398 34.03C19.6398 34.61 19.6398 35.19 19.6398 35.76C19.6398 36.26 19.3498 36.47 18.6998 36.47C15.1898 36.47 11.6798 36.47 8.16976 36.47C7.51976 36.47 7.23976 36.26 7.22976 35.76C7.22976 35.08 7.22976 34.4 7.22976 33.69C7.04976 33.69 6.90974 33.68 6.76974 33.68C5.46974 33.68 4.17975 33.68 2.87975 33.68C1.05975 33.68 -0.120241 32.75 0.00975905 31.39C0.269759 28.62 0.569755 25.85 0.849755 23.09C1.19976 19.69 1.53976 16.28 1.88976 12.88C2.15976 10.19 2.42975 7.50999 2.71975 4.81999C2.84975 3.54999 3.95975 2.79999 5.65975 2.78999C6.16975 2.78999 6.67975 2.78999 7.21975 2.78999C7.21975 2.64999 7.23974 2.53999 7.23974 2.42999C7.23974 1.82999 7.23974 1.23 7.23974 0.639999C7.23974 0.239999 7.54976 0 8.06976 0C11.6498 0 15.2197 0 18.7997 0C19.3397 0 19.6298 0.230004 19.6398 0.660004C19.6498 1.25 19.6398 1.84 19.6398 2.42C19.6398 2.53 19.6398 2.63999 19.6398 2.78999C20.1798 2.78999 20.6798 2.78999 21.1698 2.78999C22.9098 2.78999 23.9897 3.5 24.1497 4.81C24.3497 6.54 24.5098 8.25999 24.6898 9.98999C24.9398 12.5 25.1898 15 25.4498 17.51C25.7298 20.28 26.0197 23.05 26.2997 25.81L26.4998 27.77V27.76ZM3.08975 16.62C3.29975 16.51 3.42975 16.44 3.55975 16.37C7.15975 14.38 10.7498 12.4 14.3498 10.41C17.0198 8.93 19.6997 7.46 22.3697 5.98C22.4897 5.91 22.6598 5.8 22.6598 5.72C22.6398 5.33 22.6298 4.92 22.4998 4.55C22.3098 4.01 21.5398 3.85 20.9498 4.17C18.8998 5.3 16.8398 6.43999 14.7898 7.56999C11.0698 9.61999 7.35976 11.68 3.63976 13.73C3.50976 13.8 3.37974 13.93 3.36974 14.04C3.25974 14.88 3.18976 15.71 3.09976 16.62H3.08975ZM24.6097 25.25C24.6197 25.15 24.6398 25.1 24.6398 25.05C24.5698 24.31 24.5198 23.57 24.4198 22.84C24.4098 22.73 24.2698 22.61 24.1398 22.54C21.5798 21.31 19.0197 20.09 16.4597 18.87C13.9097 17.65 11.3597 16.44 8.80975 15.22C8.58975 15.12 8.43974 15.11 8.23974 15.23C7.80974 15.49 7.34975 15.72 6.90975 15.97C6.65975 16.11 6.40974 16.26 6.11974 16.42C12.3097 19.37 18.4397 22.29 24.6097 25.23V25.25ZM18.6998 23.86C18.5298 23.77 18.4298 23.71 18.3198 23.65C17.5298 23.27 16.7398 22.91 15.9698 22.52C15.7198 22.39 15.4998 22.38 15.2198 22.45C11.0898 23.4 6.96974 24.34 2.82974 25.27C2.36974 25.37 2.12974 25.49 2.11974 25.88C2.10974 26.46 2.01974 27.04 1.95974 27.67C7.54974 26.4 13.0798 25.14 18.6998 23.86ZM18.5597 4.02C18.5597 4.02 18.5397 3.97 18.5297 3.95C18.3997 3.95 18.2697 3.95 18.1497 3.95C16.8997 3.95 15.6398 3.95 14.3898 3.95C14.1398 3.95 13.8598 4.02 13.6598 4.13C10.7098 5.75 7.77975 7.38999 4.80975 8.98999C4.08975 9.37999 3.60976 9.76999 3.72976 10.46C3.74976 10.56 3.69976 10.66 3.69976 10.76C3.64976 11.25 3.60975 11.74 3.55975 12.31C8.62975 9.51 13.6097 6.75999 18.5797 4.00999L18.5597 4.02ZM24.2598 21.2C24.1798 20.36 24.0897 19.61 24.0297 18.86C24.0097 18.65 23.8898 18.54 23.6698 18.43C20.2198 16.79 16.7697 15.14 13.3297 13.5C12.9997 13.34 12.6597 13.08 12.3297 13.08C11.9997 13.08 11.6797 13.37 11.3697 13.54C10.9897 13.75 10.6098 13.96 10.2298 14.17C10.1398 14.22 10.0497 14.28 9.92974 14.36C14.7097 16.64 19.4397 18.9 24.2697 21.2H24.2598ZM15.8697 25.74C16.0197 25.9 16.1297 26.01 16.2397 26.12C18.0397 27.95 19.8398 29.79 21.6298 31.62C22.5498 32.56 22.5397 32.56 24.0897 32.5C24.2197 32.5 24.3798 32.5 24.4798 32.45C24.7198 32.33 24.9697 32.21 25.1497 32.04C25.2297 31.97 25.1998 31.77 25.1298 31.67C24.9698 31.45 24.7398 31.26 24.5398 31.05C22.6598 29.13 20.7898 27.22 18.9098 25.3C18.7998 25.18 18.7097 25.08 18.4597 25.14C17.6297 25.34 16.7897 25.52 15.8697 25.73V25.74ZM23.8297 17.11C23.7397 16.22 23.6597 15.42 23.5597 14.61C23.5497 14.52 23.3998 14.43 23.2898 14.37C22.6698 14.06 22.0398 13.77 21.4198 13.47C19.7498 12.67 18.0797 11.87 16.3997 11.08C16.2697 11.02 16.0298 10.96 15.9498 11C15.1898 11.39 14.4498 11.81 13.6598 12.25C17.0598 13.87 20.3997 15.46 23.8297 17.1V17.11ZM13.8198 21.55C13.7198 21.48 13.6798 21.45 13.6398 21.43C12.7398 21 11.8498 20.57 10.9398 20.15C10.8198 20.09 10.5997 20.09 10.4597 20.13C8.18974 20.64 5.92974 21.2 3.64974 21.66C2.79974 21.83 2.38974 22.08 2.45974 22.76C2.49974 23.21 2.38975 23.66 2.33975 24.17C6.18975 23.29 9.97974 22.43 13.8297 21.55H13.8198ZM11.4498 26.75C11.5598 26.87 11.6298 26.96 11.7198 27.05C13.2698 28.63 14.8498 30.2 16.3498 31.81C16.8398 32.34 17.3498 32.6 18.2198 32.52C18.9498 32.46 19.6898 32.51 20.5098 32.51C20.3898 32.37 20.3197 32.29 20.2397 32.21C19.8797 31.84 19.5198 31.48 19.1598 31.11C17.5898 29.51 16.0297 27.91 14.4597 26.31C14.3797 26.23 14.1897 26.13 14.0897 26.15C13.2197 26.33 12.3598 26.54 11.4498 26.75ZM7.02975 27.75C7.08975 27.83 7.10976 27.87 7.13976 27.9C8.58976 29.38 10.0398 30.87 11.5098 32.35C11.5998 32.44 11.7998 32.5 11.9498 32.5C12.8898 32.51 13.8397 32.5 14.7797 32.5C14.8597 32.5 14.9498 32.48 15.0398 32.47C15.0398 32.44 15.0397 32.42 15.0197 32.42C13.3397 30.7 11.6598 28.97 9.96975 27.26C9.90975 27.2 9.72975 27.15 9.62975 27.17C8.77975 27.35 7.92975 27.55 7.02975 27.75ZM8.85973 1.14999V2.73999C8.90973 2.74999 8.91975 2.75999 8.93975 2.75999C11.8898 2.75999 14.8397 2.76 17.7997 2.77C18.0197 2.77 18.0698 2.69 18.0698 2.55C18.0698 2.21 18.0398 1.86 18.0698 1.52C18.0998 1.23 17.9797 1.14 17.5797 1.14C14.8197 1.15 12.0498 1.14 9.28976 1.14C9.15976 1.14 9.02973 1.14 8.85973 1.14V1.14999ZM8.84976 35.27C8.91976 35.29 8.95975 35.3 8.99975 35.3C11.9297 35.3 14.8497 35.3 17.7797 35.3C18.0197 35.3 18.0798 35.22 18.0698 35.06C18.0698 34.72 18.0498 34.37 18.0698 34.03C18.0898 33.76 17.9798 33.67 17.5998 33.67C14.8198 33.68 12.0497 33.67 9.26974 33.67C9.13974 33.67 9.00976 33.67 8.84976 33.69V35.26V35.27ZM9.65975 32.51C9.55975 32.39 9.50976 32.32 9.44976 32.26C8.34976 31.13 7.24976 30.01 6.13976 28.88C5.89976 28.64 5.69975 28.27 5.37975 28.2C5.03975 28.12 4.58975 28.32 4.18975 28.4C3.66975 28.52 3.14976 28.64 2.63976 28.76C2.65976 28.82 2.64976 28.84 2.66976 28.86C3.81976 30.04 4.96974 31.21 6.11974 32.38C6.17974 32.44 6.31976 32.49 6.41976 32.5C7.46976 32.5 8.51975 32.5 9.65975 32.5V32.51ZM11.2697 3.97C11.1097 3.95 11.0598 3.94 11.0098 3.94C9.61976 3.94 8.22975 3.94 6.83975 3.94C6.67975 3.94 6.49974 3.99999 6.36974 4.06999C5.73974 4.39999 5.11976 4.73999 4.50976 5.09999C4.36976 5.17999 4.24976 5.34 4.22976 5.47C4.14976 6 4.10975 6.53999 4.05975 7.06999C4.02975 7.34999 4.00976 7.63999 3.97976 7.98999C6.42976 6.63999 8.80974 5.31999 11.2697 3.95999V3.97ZM8.97976 19.22C8.77976 19.12 8.66975 19.06 8.55975 19.01C7.51975 18.51 6.48976 18.02 5.44976 17.53C4.73976 17.19 4.74975 17.19 4.08975 17.55C3.89975 17.66 3.70975 17.78 3.49975 17.87C3.05975 18.05 2.85976 18.3 2.84976 18.69C2.82976 19.32 2.73976 19.96 2.66976 20.66C4.77976 20.18 6.82975 19.71 8.96975 19.22H8.97976ZM17.4398 10.18C19.4498 11.14 21.3997 12.07 23.4297 13.03C23.3397 12.13 23.2598 11.32 23.1598 10.52C23.1598 10.46 23.0598 10.38 22.9798 10.34C21.9998 9.87 21.0298 9.4 20.0398 8.94C19.9498 8.9 19.7698 8.9 19.6898 8.94C18.9498 9.33 18.2298 9.74 17.4398 10.17V10.18ZM25.0098 29.55C25.0098 29.55 25.0797 29.53 25.1097 29.52C25.0197 28.64 24.9397 27.77 24.8297 26.89C24.8297 26.81 24.7097 26.71 24.6097 26.66C23.2997 26.02 21.9697 25.4 20.6497 24.77C20.5797 24.73 20.4798 24.73 20.3898 24.71C20.3698 24.73 20.3497 24.75 20.3397 24.78C21.8997 26.37 23.4597 27.96 25.0197 29.56L25.0098 29.55ZM1.83975 30.03C1.83975 30.03 1.75975 30.05 1.71975 30.05C1.66975 30.6 1.59975 31.15 1.58975 31.7C1.58975 32.04 1.83975 32.34 2.27975 32.41C2.89975 32.5 3.53976 32.5 4.16976 32.53C4.16976 32.5 4.18976 32.46 4.19976 32.43C3.40976 31.63 2.61975 30.82 1.83975 30.02V30.03ZM22.8198 7.2C22.2498 7.51 21.7497 7.79 21.2097 8.09C21.8197 8.38 22.3798 8.64 23.0098 8.94C22.9498 8.34 22.8897 7.81 22.8297 7.2H22.8198Z" fill="white"/>
</svg>
