<svg width="59" height="59" viewBox="0 0 59 59" fill="none" xmlns="http://www.w3.org/2000/svg">
<path d="M29.16 0C13.06 0 0 13.05 0 29.16C0 45.27 13.05 58.32 29.16 58.32C45.27 58.32 58.32 45.27 58.32 29.16C58.32 13.05 45.27 0 29.16 0ZM36.68 44.57L21.33 44.54C17.24 44.54 13.76 41.27 13.76 37.08V21.32C13.76 17.14 17.17 13.76 21.35 13.76L37.12 13.78C40.95 13.78 44.03 16.75 44.49 20.42V37.78C44.03 42 40.65 44.58 36.68 44.57Z" fill="#37CCDC"/>
<path d="M36.96 16.52L21.79 16.54C18.91 16.54 16.52 18.85 16.52 21.77V36.6C16.52 39.57 18.99 41.76 21.8 41.75L36.86 41.7C39.56 41.7 41.69 39.38 41.7 36.9L41.74 21.85C41.74 19 39.81 16.92 36.96 16.51V16.52ZM29.16 37.13C24.76 37.13 21.19 33.56 21.19 29.16C21.19 24.76 24.76 21.19 29.16 21.19C33.56 21.19 37.13 24.76 37.13 29.16C37.13 33.56 33.56 37.13 29.16 37.13ZM37.62 22.32C36.73 22.32 36.02 21.6 36.02 20.72C36.02 19.84 36.74 19.12 37.62 19.12C38.5 19.12 39.22 19.84 39.22 20.72C39.22 21.6 38.5 22.32 37.62 22.32Z" fill="#37CCDC"/>
<path d="M29.17 34.37C32.0474 34.37 34.38 32.0374 34.38 29.16C34.38 26.2826 32.0474 23.95 29.17 23.95C26.2926 23.95 23.96 26.2826 23.96 29.16C23.96 32.0374 26.2926 34.37 29.17 34.37Z" fill="#37CCDC"/>
</svg>
