<svg width="59" height="59" viewBox="0 0 59 59" fill="none" xmlns="http://www.w3.org/2000/svg">
<path d="M58.32 29.16C58.32 45.26 45.26 58.32 29.16 58.32C13.06 58.32 0 45.26 0 29.16C0 13.06 13.06 0 29.16 0C45.26 0 58.32 13.06 58.32 29.16ZM22.62 17.59C22.62 15.49 20.92 13.79 18.82 13.79C16.72 13.79 15.02 15.49 15.02 17.59C15.02 19.69 16.72 21.39 18.82 21.39C20.92 21.39 22.62 19.69 22.62 17.59ZM30.85 32.36C30.86 30.66 32.55 29.56 33.84 29.55C35.16 29.55 36.83 30.64 36.84 32.15L36.96 42.37C39.16 42.73 40.8 42.73 43.25 42.46L43.3 30.01C43.31 27.01 41.25 24.6 38.89 23.65C36.17 22.56 33.24 23.43 31.18 25.22C30.43 23.07 25.8 23.56 24.43 24.34L24.49 42.42C26.93 42.77 28.76 42.79 30.77 42.27L30.85 32.36ZM22.07 42.59L22.04 23.82L15.58 23.85V42.66L22.06 42.59H22.07Z" fill="#37CCDC"/>
</svg>
