<svg width="410" height="156" viewBox="0 0 410 156" fill="none" xmlns="http://www.w3.org/2000/svg">
<path d="M25.6 0V17.95H35.88V31.19H25.6V47.91C25.6 49.92 25.8 51.25 26.2 51.9C26.81 52.91 27.88 53.41 29.41 53.41C30.79 53.41 32.71 53.03 35.19 52.26L36.57 64.75C31.95 65.73 27.64 66.22 23.63 66.22C18.98 66.22 15.55 65.64 13.35 64.49C11.15 63.34 9.52 61.58 8.46 59.23C7.4 56.88 6.88 53.07 6.88 47.8V31.2H0V17.96H6.88V9.29L25.6 0Z" fill="white"/>
<path d="M37.73 0H56.41V24C58.95 21.45 61.47 19.63 63.98 18.53C66.49 17.43 69.46 16.89 72.88 16.89C77.96 16.89 81.96 18.39 84.88 21.38C87.8 24.37 89.26 28.96 89.26 35.16V65.16H70.49V39.21C70.49 36.25 69.92 34.15 68.79 32.92C67.66 31.69 66.07 31.08 64.02 31.08C61.76 31.08 59.92 31.91 58.51 33.57C57.1 35.23 56.4 38.21 56.4 42.5V65.17H37.72V0.0200043L37.73 0Z" fill="white"/>
<path d="M147.46 46.05H110.02C110.36 48.95 111.17 51.12 112.45 52.54C114.25 54.58 116.61 55.61 119.52 55.61C121.36 55.61 123.1 55.17 124.75 54.28C125.76 53.72 126.84 52.73 128.01 51.3L146.41 52.94C143.59 57.68 140.2 61.08 136.22 63.14C132.24 65.2 126.54 66.23 119.1 66.23C112.64 66.23 107.57 65.35 103.87 63.59C100.17 61.83 97.1 59.03 94.67 55.19C92.24 51.35 91.02 46.84 91.02 41.66C91.02 34.28 93.46 28.31 98.34 23.75C103.22 19.19 109.96 16.91 118.55 16.91C125.53 16.91 131.03 17.93 135.07 19.98C139.11 22.03 142.18 24.99 144.29 28.87C146.4 32.75 147.46 37.8 147.46 44.02V46.06V46.05ZM128.47 37.38C128.1 33.88 127.13 31.38 125.56 29.87C123.98 28.36 121.91 27.6 119.34 27.6C116.37 27.6 114 28.74 112.23 31.02C111.1 32.44 110.38 34.56 110.07 37.37H128.47V37.38Z" fill="white"/>
<path d="M190.31 33.25L172.46 31.43C173.13 28.41 174.1 26.03 175.37 24.3C176.64 22.57 178.47 21.06 180.85 19.79C182.56 18.87 184.92 18.16 187.92 17.66C190.92 17.16 194.16 16.91 197.65 16.91C203.25 16.91 207.74 17.21 211.14 17.82C214.54 18.43 217.37 19.69 219.63 21.62C221.22 22.95 222.48 24.84 223.39 27.29C224.31 29.73 224.77 32.07 224.77 34.29V55.13C224.77 57.35 224.91 59.09 225.21 60.35C225.5 61.61 226.14 63.22 227.12 65.17H209.59C208.89 63.96 208.43 63.03 208.21 62.39C207.99 61.75 207.78 60.75 207.57 59.39C205.12 61.67 202.69 63.3 200.27 64.28C196.97 65.58 193.13 66.24 188.75 66.24C182.94 66.24 178.52 64.94 175.51 62.33C172.5 59.72 170.99 56.51 170.99 52.69C170.99 49.11 172.08 46.16 174.25 43.85C176.42 41.54 180.43 39.82 186.27 38.69C193.28 37.33 197.82 36.37 199.9 35.82C201.98 35.27 204.18 34.55 206.51 33.66C206.51 31.44 206.03 29.88 205.09 28.99C204.14 28.1 202.47 27.66 200.09 27.66C197.03 27.66 194.74 28.13 193.21 29.08C192.02 29.82 191.05 31.21 190.32 33.26L190.31 33.25ZM206.51 42.76C203.94 43.65 201.26 44.43 198.48 45.12C194.69 46.1 192.29 47.06 191.28 48.01C190.24 48.99 189.72 50.1 189.72 51.34C189.72 52.76 190.23 53.92 191.26 54.83C192.28 55.73 193.79 56.19 195.78 56.19C197.77 56.19 199.8 55.7 201.58 54.72C203.37 53.74 204.64 52.55 205.39 51.14C206.14 49.73 206.51 47.9 206.51 45.65V42.76Z" fill="white"/>
<path d="M229.11 17.96H246.59V25.69C248.27 22.34 250.01 20.04 251.8 18.78C253.59 17.52 255.8 16.89 258.43 16.89C261.06 16.89 264.2 17.72 267.47 19.38L261.69 32.27C259.49 31.38 257.74 30.94 256.46 30.94C254.01 30.94 252.12 31.92 250.77 33.87C248.84 36.63 247.88 41.78 247.88 49.34V65.16H229.11V17.96Z" fill="white"/>
<path d="M290.8 0V17.95H301.08V31.19H290.8V47.91C290.8 49.92 291 51.25 291.4 51.9C292.01 52.91 293.08 53.41 294.61 53.41C295.99 53.41 297.91 53.03 300.39 52.26L301.77 64.75C297.15 65.73 292.84 66.22 288.83 66.22C284.18 66.22 280.75 65.64 278.55 64.49C276.35 63.34 274.72 61.58 273.66 59.23C272.6 56.88 272.08 53.07 272.08 47.8V31.2H265.2V17.96H272.08V9.29L290.8 0Z" fill="white"/>
<path d="M0.77002 112.81C0.77002 105.61 3.28002 99.68 8.30002 95.01C13.32 90.34 20.09 88.01 28.63 88.01C38.39 88.01 45.76 90.75 50.75 96.23C54.76 100.65 56.76 106.08 56.76 112.54C56.76 119.8 54.27 125.75 49.3 130.38C44.33 135.02 37.45 137.34 28.67 137.34C20.84 137.34 14.51 135.41 9.67002 131.56C3.73002 126.79 0.77002 120.54 0.77002 112.81ZM19.49 112.77C19.49 116.98 20.37 120.09 22.13 122.1C23.89 124.11 26.1 125.12 28.76 125.12C31.42 125.12 33.66 124.13 35.39 122.14C37.12 120.16 37.98 116.97 37.98 112.59C37.98 108.5 37.11 105.46 35.36 103.46C33.62 101.46 31.46 100.46 28.89 100.46C26.17 100.46 23.92 101.48 22.14 103.5C20.37 105.53 19.48 108.62 19.48 112.77H19.49Z" fill="white"/>
<path d="M79.49 89.08H88.39V102.32H79.49V136.27H60.77V102.32H53.8V89.08H60.77V86.95C60.77 85.02 60.98 82.91 61.41 80.59C61.84 78.28 62.64 76.39 63.82 74.92C65 73.45 66.65 72.27 68.78 71.36C70.91 70.46 74.02 70 78.12 70C81.39 70 86.15 70.37 92.39 71.11L90.33 82.04C88.1 81.68 86.29 81.51 84.91 81.51C83.23 81.51 82.02 81.78 81.29 82.33C80.56 82.88 80.04 83.75 79.73 84.93C79.58 85.58 79.5 86.96 79.5 89.06L79.49 89.08Z" fill="white"/>
<path d="M169.28 71.13V136.28H151.8V129.3C149.35 132.26 147.12 134.26 145.1 135.3C142.41 136.66 139.41 137.34 136.11 137.34C129.47 137.34 124.4 134.9 120.9 130.01C117.4 125.12 115.65 119.18 115.65 112.19C115.65 104.37 117.58 98.38 121.45 94.24C125.32 90.09 130.24 88.02 136.2 88.02C139.11 88.02 141.74 88.49 144.12 89.44C146.49 90.39 148.59 91.81 150.43 93.71V71.13H169.29H169.28ZM150.56 112.55C150.56 108.85 149.75 106.08 148.13 104.26C146.51 102.44 144.46 101.53 141.98 101.53C139.81 101.53 137.99 102.41 136.52 104.15C135.05 105.9 134.32 108.83 134.32 112.95C134.32 116.8 135.08 119.62 136.59 121.42C138.1 123.21 139.98 124.11 142.21 124.11C144.6 124.11 146.58 123.21 148.17 121.4C149.76 119.59 150.56 116.64 150.56 112.56V112.55Z" fill="white"/>
<path d="M168.24 89.08H187.95L198 120.5L207.33 89.08H225.73L206.4 139.51C204.2 145.26 201.95 149.15 199.66 151.16C196.42 154.01 191.48 155.43 184.84 155.43C182.15 155.43 177.99 155.07 172.36 154.36L170.89 141.74C173.58 142.57 176.58 142.98 179.88 142.98C182.08 142.98 183.86 142.49 185.22 141.51C186.58 140.53 187.73 138.78 188.68 136.26L168.23 89.07L168.24 89.08Z" fill="white"/>
<path d="M276.46 117.17H239.02C239.36 120.07 240.17 122.24 241.45 123.66C243.25 125.7 245.61 126.73 248.52 126.73C250.36 126.73 252.1 126.29 253.75 125.4C254.76 124.84 255.84 123.85 257.01 122.42L275.41 124.06C272.59 128.8 269.2 132.2 265.22 134.26C261.24 136.32 255.54 137.35 248.1 137.35C241.64 137.35 236.57 136.47 232.87 134.71C229.17 132.95 226.1 130.15 223.67 126.31C221.24 122.47 220.02 117.96 220.02 112.78C220.02 105.4 222.46 99.43 227.34 94.87C232.22 90.31 238.96 88.03 247.55 88.03C254.53 88.03 260.03 89.05 264.07 91.1C268.11 93.15 271.18 96.11 273.29 99.99C275.4 103.87 276.46 108.92 276.46 115.14V117.18V117.17ZM257.47 108.5C257.1 105 256.13 102.5 254.56 100.99C252.98 99.48 250.91 98.72 248.34 98.72C245.37 98.72 243 99.86 241.23 102.14C240.1 103.56 239.38 105.68 239.07 108.49H257.47V108.5Z" fill="white"/>
<path d="M278.68 71.13H297.36V83.44H278.68V71.13ZM278.68 89.08H297.36V136.28H278.68V89.08Z" fill="white"/>
<path d="M302.24 89.08H319.63V96.77C322.23 93.63 324.86 91.39 327.52 90.04C330.18 88.69 333.42 88.02 337.25 88.02C342.42 88.02 346.47 89.51 349.39 92.49C352.31 95.47 353.77 100.07 353.77 106.29V136.29H335V110.34C335 107.38 334.43 105.28 333.3 104.05C332.17 102.82 330.58 102.21 328.53 102.21C326.27 102.21 324.43 103.04 323.02 104.7C321.61 106.36 320.91 109.34 320.91 113.63V136.29H302.23V89.09L302.24 89.08Z" fill="white"/>
<path d="M391.79 89.08H409.27V133.66L409.31 135.75C409.31 138.71 408.66 141.54 407.36 144.22C406.06 146.9 404.33 149.07 402.17 150.73C400.01 152.39 397.28 153.59 393.96 154.33C390.64 155.07 386.84 155.44 382.56 155.44C372.77 155.44 366.05 154.02 362.39 151.17C358.73 148.33 356.91 144.52 356.91 139.75C356.91 139.16 356.94 138.36 357 137.35L375.13 139.35C375.59 140.98 376.29 142.11 377.24 142.73C378.62 143.65 380.34 144.11 382.43 144.11C385.12 144.11 387.13 143.41 388.46 142.02C389.79 140.63 390.46 138.2 390.46 134.73V127.57C388.62 129.68 386.79 131.2 384.95 132.15C382.07 133.63 378.97 134.37 375.63 134.37C369.11 134.37 363.85 131.61 359.85 126.1C357.01 122.19 355.58 117.02 355.58 110.59C355.58 103.24 357.42 97.64 361.09 93.79C364.76 89.94 369.56 88.01 375.5 88.01C379.29 88.01 382.42 88.63 384.88 89.88C387.34 91.12 389.64 93.18 391.78 96.06V89.08H391.79ZM374.21 111.97C374.21 115.38 374.96 117.9 376.46 119.55C377.96 121.19 379.93 122.02 382.38 122.02C384.83 122.02 386.66 121.17 388.23 119.46C389.8 117.76 390.59 115.19 390.59 111.75C390.59 108.31 389.76 105.68 388.11 103.86C386.46 102.04 384.44 101.13 382.05 101.13C379.66 101.13 377.76 101.97 376.34 103.64C374.92 105.31 374.21 108.09 374.21 111.97Z" fill="white"/>
</svg>
