<svg width="110" height="107" viewBox="0 0 110 107" fill="none" xmlns="http://www.w3.org/2000/svg">
<path d="M56.67 0H53.08C23.7647 0 0 23.7647 0 53.08V53.09C0 82.4053 23.7647 106.17 53.08 106.17H56.67C85.9853 106.17 109.75 82.4053 109.75 53.09V53.08C109.75 23.7647 85.9853 0 56.67 0Z" fill="#F62CD3"/>
<path d="M50.4 82.04C46.5 82.04 42.73 81.23 39.74 79.18C36.99 77.3 34.9901 74.72 33.3401 72.45C31.9001 70.48 30.35 68.23 29.14 65.77C28.01 65.41 26.88 65.1 25.73 64.86C21.58 64 18.5 64.22 15 65.66C14.56 65.84 14.0501 65.66 13.8401 65.23C13.6101 64.78 13.82 64.22 14.3 64.03C18.17 62.44 21.57 62.19 26.12 63.14C26.82 63.28 27.51 63.46 28.2 63.65C28.09 63.37 27.99 63.09 27.9 62.81C25.28 55.09 25.86 46.44 29.45 39.68C33.19 32.64 40.95 26.93 49.42 26.56C50.78 25.96 52.24 25.52 53.69 25.17C55.01 24.65 56.35 24.35 58.09 24.31C60.67 23.88 63.18 24.58 65.08 25.23C78.39 29.83 88.07 43.03 88.09 56.62C88.09 62.27 86.6 67.52 83.75 71.81C80.62 76.53 75.83 79.97 70.61 81.24C68.05 81.87 65.63 81.94 63.4 81.46C62.43 81.25 61.46 80.93 60.48 80.48C57.3 81.43 53.8 82.04 50.41 82.04H50.4ZM31.67 66.68C32.63 68.36 33.7301 69.94 34.8401 71.45C36.4101 73.6 38.3 76.04 40.81 77.76C44.66 80.4 49.98 80.76 55.1 79.94C43.26 78.59 37.49 73.51 35.71 68.37C34.35 67.77 33.01 67.19 31.67 66.68ZM63.15 79.58C63.37 79.64 63.58 79.69 63.8 79.74C65.74 80.16 67.88 80.09 70.15 79.54C74.93 78.37 79.32 75.21 82.2 70.87C84.86 66.86 86.26 61.93 86.25 56.62C86.25 50.43 84.12 44.33 80.51 39.17C84.05 46.65 83.89 55.9 80.06 63.98C77.45 69.49 73.46 73.99 68.54 77.01C67.04 77.93 65.2 78.81 63.16 79.58H63.15ZM55.26 74.78C56.17 75.61 57.13 76.38 58.13 77.08C58.99 77.68 59.83 78.19 60.65 78.59C63.3 77.74 65.7 76.65 67.54 75.52C72.1 72.73 75.95 68.37 78.38 63.25C82.05 55.52 82.16 46.69 78.7 39.61C75.58 33.25 68.28 25.95 58.27 26.06C56.97 26.29 55.62 26.53 54.29 26.83C54.23 26.85 54.17 26.88 54.11 26.9C55.2 27.12 56.3 27.43 57.39 27.85C62.86 29.95 67.03 34.33 69.44 40.52C72.73 48.94 72.28 59.96 68.35 67.33C66.71 70.4 64.89 72.36 62.63 73.51C60.81 74.43 58.5 74.84 55.86 74.8C55.66 74.8 55.46 74.79 55.27 74.78H55.26ZM38.2 69.49C40.53 73.65 46.21 77.46 56.8 78.33C55.21 77.2 53.74 75.91 52.39 74.47C47.48 73.67 42.78 71.55 38.2 69.49ZM53.33 72.84C54.18 72.96 55.04 73.03 55.89 73.05C58.24 73.1 60.22 72.74 61.77 71.96C63.69 70.99 65.26 69.27 66.71 66.54C70.43 59.58 70.8401 49.14 67.7201 41.15C66.1601 37.17 62.99 31.92 56.7 29.5C54.96 28.83 53.2101 28.46 51.4701 28.34C48.9301 30.19 47.17 33.54 46.13 38.52C44.52 46.21 44.58 53.35 46.31 59.72C47.67 64.74 50.1 69.24 53.33 72.84ZM37.24 67.11C37.79 67.36 38.34 67.6 38.88 67.85C42.68 69.57 46.5701 71.33 50.5301 72.29C47.8201 68.81 45.76 64.68 44.54 60.16C42.74 53.53 42.6701 46.13 44.3401 38.17C45.1101 34.5 46.26 31.62 47.83 29.49C47.38 29.83 46.95 30.2 46.57 30.61C42.87 34.56 40.17 39.58 38.55 45.52C37.69 48.65 37.1301 52.01 36.8401 55.8C36.6701 57.98 36.7601 60.05 36.8401 62.23C36.8801 63.13 36.92 64.03 36.94 64.94C36.95 65.65 37.05 66.38 37.25 67.11H37.24ZM30.4701 64.36C32.0601 64.9 33.63 65.54 35.19 66.21C35.13 65.8 35.1001 65.39 35.0901 64.98C35.0701 64.08 35.03 63.19 35 62.3C34.91 60.16 34.82 57.94 35 55.66C35.3 51.77 35.88 48.3 36.77 45.07C38.47 38.85 41.31 33.59 45.2 29.43C45.39 29.23 45.59 29.03 45.79 28.84C39.49 30.39 33.98 35 31.08 40.47C27.7 46.83 27.17 54.97 29.64 62.26C29.88 62.97 30.1601 63.67 30.4701 64.35V64.36Z" fill="#FDDA31"/>
</svg>
