<svg width="110" height="107" viewBox="0 0 110 107" fill="none" xmlns="http://www.w3.org/2000/svg">
<path d="M56.67 0H53.08C23.7647 0 0 23.7647 0 53.08V53.09C0 82.4053 23.7647 106.17 53.08 106.17H56.67C85.9853 106.17 109.75 82.4053 109.75 53.09V53.08C109.75 23.7647 85.9853 0 56.67 0Z" fill="#37CCDC"/>
<path d="M47.85 82.04C43.95 82.04 40.18 81.23 37.19 79.18C34.44 77.3 32.44 74.72 30.79 72.45C29.35 70.48 27.8 68.23 26.59 65.77C25.46 65.41 24.33 65.1 23.18 64.86C19.03 64 15.95 64.22 12.45 65.66C12.01 65.84 11.5 65.66 11.29 65.23C11.06 64.78 11.27 64.22 11.75 64.03C15.62 62.44 19.02 62.19 23.57 63.14C24.27 63.28 24.96 63.46 25.65 63.65C25.54 63.37 25.44 63.09 25.35 62.81C22.73 55.09 23.31 46.44 26.9 39.68C30.64 32.64 38.4 26.93 46.87 26.56C48.23 25.96 49.69 25.52 51.14 25.17C52.46 24.65 53.8 24.35 55.54 24.31C58.12 23.88 60.63 24.58 62.53 25.23C75.84 29.83 85.52 43.03 85.54 56.62C85.54 62.27 84.05 67.52 81.2 71.81C78.07 76.53 73.28 79.97 68.06 81.24C65.5 81.87 63.08 81.94 60.85 81.46C59.88 81.25 58.91 80.93 57.93 80.48C54.75 81.43 51.25 82.04 47.86 82.04H47.85ZM29.13 66.68C30.09 68.36 31.19 69.94 32.3 71.45C33.87 73.6 35.76 76.04 38.27 77.76C42.12 80.4 47.44 80.76 52.56 79.94C40.72 78.59 34.95 73.51 33.17 68.37C31.81 67.77 30.47 67.19 29.13 66.68ZM60.61 79.58C60.83 79.64 61.04 79.69 61.26 79.74C63.2 80.16 65.34 80.09 67.61 79.54C72.39 78.37 76.78 75.21 79.66 70.87C82.32 66.86 83.72 61.93 83.71 56.62C83.71 50.43 81.58 44.33 77.97 39.17C81.51 46.65 81.35 55.9 77.52 63.98C74.91 69.49 70.92 73.99 66 77.01C64.5 77.93 62.66 78.81 60.62 79.58H60.61ZM52.71 74.78C53.62 75.61 54.58 76.38 55.58 77.08C56.44 77.68 57.28 78.19 58.1 78.59C60.75 77.74 63.15 76.65 64.99 75.52C69.55 72.73 73.4 68.37 75.83 63.25C79.5 55.52 79.61 46.69 76.15 39.61C73.03 33.25 65.73 25.95 55.72 26.06C54.42 26.29 53.07 26.53 51.74 26.83C51.68 26.85 51.62 26.88 51.56 26.9C52.65 27.12 53.75 27.43 54.84 27.85C60.31 29.95 64.48 34.33 66.89 40.52C70.18 48.94 69.73 59.96 65.8 67.33C64.16 70.4 62.34 72.36 60.08 73.51C58.26 74.43 55.95 74.84 53.31 74.8C53.11 74.8 52.91 74.79 52.72 74.78H52.71ZM35.66 69.49C37.99 73.65 43.67 77.46 54.26 78.33C52.67 77.2 51.2 75.91 49.85 74.47C44.94 73.67 40.24 71.55 35.66 69.49ZM50.79 72.84C51.64 72.96 52.5 73.03 53.35 73.05C55.7 73.1 57.68 72.74 59.23 71.96C61.15 70.99 62.72 69.27 64.17 66.54C67.89 59.58 68.3 49.14 65.18 41.15C63.62 37.17 60.45 31.92 54.16 29.5C52.42 28.83 50.67 28.46 48.93 28.34C46.39 30.19 44.63 33.54 43.59 38.52C41.98 46.21 42.04 53.35 43.77 59.72C45.13 64.74 47.56 69.24 50.79 72.84ZM34.69 67.11C35.24 67.36 35.79 67.6 36.33 67.85C40.13 69.57 44.02 71.33 47.98 72.29C45.27 68.81 43.21 64.68 41.99 60.16C40.19 53.53 40.12 46.13 41.79 38.17C42.56 34.5 43.71 31.62 45.28 29.49C44.83 29.83 44.4 30.2 44.02 30.61C40.32 34.56 37.62 39.58 36 45.52C35.14 48.65 34.58 52.01 34.29 55.8C34.12 57.98 34.21 60.05 34.29 62.23C34.33 63.13 34.37 64.03 34.39 64.94C34.4 65.65 34.5 66.38 34.7 67.11H34.69ZM27.93 64.36C29.52 64.9 31.09 65.54 32.65 66.21C32.59 65.8 32.56 65.39 32.55 64.98C32.53 64.08 32.49 63.19 32.46 62.3C32.37 60.16 32.28 57.94 32.46 55.66C32.76 51.77 33.34 48.3 34.23 45.07C35.93 38.85 38.77 33.59 42.66 29.43C42.85 29.23 43.05 29.03 43.25 28.84C36.95 30.39 31.44 35 28.54 40.47C25.16 46.83 24.63 54.97 27.1 62.26C27.34 62.97 27.62 63.67 27.93 64.35V64.36Z" fill="#F62CD3"/>
</svg>
