<svg width="110" height="107" viewBox="0 0 110 107" fill="none" xmlns="http://www.w3.org/2000/svg">
<path d="M56.67 0H53.08C23.7647 0 0 23.7647 0 53.08V53.09C0 82.4053 23.7647 106.17 53.08 106.17H56.67C85.9853 106.17 109.75 82.4053 109.75 53.09V53.08C109.75 23.7647 85.9853 0 56.67 0Z" fill="#0AF1A5"/>
<path d="M50.15 82.04C46.25 82.04 42.48 81.23 39.49 79.18C36.74 77.3 34.74 74.72 33.09 72.45C31.65 70.48 30.1 68.23 28.89 65.77C27.76 65.41 26.63 65.1 25.48 64.86C21.33 64 18.25 64.22 14.75 65.66C14.31 65.84 13.8 65.66 13.59 65.23C13.36 64.78 13.57 64.22 14.05 64.03C17.92 62.44 21.32 62.19 25.87 63.14C26.57 63.28 27.26 63.46 27.95 63.65C27.84 63.37 27.74 63.09 27.65 62.81C25.03 55.09 25.61 46.44 29.2 39.68C32.94 32.64 40.7 26.93 49.17 26.56C50.53 25.96 51.99 25.52 53.44 25.17C54.76 24.65 56.1 24.35 57.84 24.31C60.42 23.88 62.93 24.58 64.83 25.23C78.14 29.83 87.82 43.03 87.84 56.62C87.84 62.27 86.35 67.52 83.5 71.81C80.37 76.53 75.58 79.97 70.36 81.24C67.8 81.87 65.38 81.94 63.15 81.46C62.18 81.25 61.21 80.93 60.23 80.48C57.05 81.43 53.55 82.04 50.16 82.04H50.15ZM31.43 66.68C32.39 68.36 33.49 69.94 34.6 71.45C36.17 73.6 38.06 76.04 40.57 77.76C44.42 80.4 49.74 80.76 54.86 79.94C43.02 78.59 37.25 73.51 35.47 68.37C34.11 67.77 32.77 67.19 31.43 66.68ZM62.9 79.58C63.12 79.64 63.33 79.69 63.55 79.74C65.49 80.16 67.63 80.09 69.9 79.54C74.68 78.37 79.07 75.21 81.95 70.87C84.61 66.86 86.01 61.93 86 56.62C86 50.43 83.87 44.33 80.26 39.17C83.8 46.65 83.64 55.9 79.81 63.98C77.2 69.49 73.21 73.99 68.29 77.01C66.79 77.93 64.95 78.81 62.91 79.58H62.9ZM55.01 74.78C55.92 75.61 56.88 76.38 57.88 77.08C58.74 77.68 59.58 78.19 60.4 78.59C63.05 77.74 65.45 76.65 67.29 75.52C71.85 72.73 75.7 68.37 78.13 63.25C81.8 55.52 81.91 46.69 78.45 39.61C75.33 33.25 68.03 25.95 58.02 26.06C56.72 26.29 55.37 26.53 54.04 26.83C53.98 26.85 53.92 26.88 53.86 26.9C54.95 27.12 56.05 27.43 57.14 27.85C62.61 29.95 66.78 34.33 69.19 40.52C72.48 48.94 72.03 59.96 68.1 67.33C66.46 70.4 64.64 72.36 62.38 73.51C60.56 74.43 58.25 74.84 55.61 74.8C55.41 74.8 55.21 74.79 55.02 74.78H55.01ZM37.96 69.49C40.29 73.65 45.97 77.46 56.56 78.33C54.97 77.2 53.5 75.91 52.15 74.47C47.24 73.67 42.54 71.55 37.96 69.49ZM53.09 72.84C53.94 72.96 54.8 73.03 55.65 73.05C58 73.1 59.98 72.74 61.53 71.96C63.45 70.99 65.02 69.27 66.47 66.54C70.19 59.58 70.6 49.14 67.48 41.15C65.92 37.17 62.75 31.92 56.46 29.5C54.72 28.83 52.97 28.46 51.23 28.34C48.69 30.19 46.93 33.54 45.89 38.52C44.28 46.21 44.34 53.35 46.07 59.72C47.43 64.74 49.86 69.24 53.09 72.84ZM36.99 67.11C37.54 67.36 38.09 67.6 38.63 67.85C42.43 69.57 46.32 71.33 50.28 72.29C47.57 68.81 45.51 64.68 44.29 60.16C42.49 53.53 42.42 46.13 44.09 38.17C44.86 34.5 46.01 31.62 47.58 29.49C47.13 29.83 46.7 30.2 46.32 30.61C42.62 34.56 39.92 39.58 38.3 45.52C37.44 48.65 36.88 52.01 36.59 55.8C36.42 57.98 36.51 60.05 36.59 62.23C36.63 63.13 36.67 64.03 36.69 64.94C36.7 65.65 36.8 66.38 37 67.11H36.99ZM30.23 64.36C31.82 64.9 33.39 65.54 34.95 66.21C34.89 65.8 34.86 65.39 34.85 64.98C34.83 64.08 34.79 63.19 34.76 62.3C34.67 60.16 34.58 57.94 34.76 55.66C35.06 51.77 35.64 48.3 36.53 45.07C38.23 38.85 41.07 33.59 44.96 29.43C45.15 29.23 45.35 29.03 45.55 28.84C39.25 30.39 33.74 35 30.84 40.47C27.46 46.83 26.93 54.97 29.4 62.26C29.64 62.97 29.92 63.67 30.23 64.35V64.36Z" fill="#37CCDC"/>
</svg>
