<svg width="110" height="107" viewBox="0 0 110 107" fill="none" xmlns="http://www.w3.org/2000/svg">
<path d="M56.67 0H53.08C23.7647 0 0 23.7647 0 53.08V53.09C0 82.4053 23.7647 106.17 53.08 106.17H56.67C85.9853 106.17 109.75 82.4053 109.75 53.09V53.08C109.75 23.7647 85.9853 0 56.67 0Z" fill="#FDDA31"/>
<path d="M48.01 82.04C44.11 82.04 40.34 81.23 37.35 79.18C34.6 77.3 32.6 74.72 30.95 72.45C29.51 70.48 27.96 68.23 26.75 65.77C25.62 65.41 24.49 65.1 23.34 64.86C19.19 64 16.11 64.22 12.61 65.66C12.17 65.84 11.66 65.66 11.45 65.23C11.22 64.78 11.43 64.22 11.91 64.03C15.78 62.44 19.18 62.19 23.73 63.14C24.43 63.28 25.12 63.46 25.81 63.65C25.7 63.37 25.6 63.09 25.51 62.81C22.89 55.09 23.47 46.44 27.06 39.68C30.8 32.64 38.56 26.93 47.03 26.56C48.39 25.96 49.85 25.52 51.3 25.17C52.62 24.65 53.96 24.35 55.7 24.31C58.28 23.88 60.79 24.58 62.69 25.23C76 29.83 85.68 43.03 85.7 56.62C85.7 62.27 84.21 67.52 81.36 71.81C78.23 76.53 73.44 79.97 68.22 81.24C65.66 81.87 63.24 81.94 61.01 81.46C60.04 81.25 59.07 80.93 58.09 80.48C54.91 81.43 51.41 82.04 48.02 82.04H48.01ZM29.28 66.68C30.24 68.36 31.34 69.94 32.45 71.45C34.02 73.6 35.91 76.04 38.42 77.76C42.27 80.4 47.59 80.76 52.71 79.94C40.87 78.59 35.1 73.51 33.32 68.37C31.96 67.77 30.62 67.19 29.28 66.68ZM60.76 79.58C60.98 79.64 61.19 79.69 61.41 79.74C63.35 80.16 65.49 80.09 67.76 79.54C72.54 78.37 76.93 75.21 79.81 70.87C82.47 66.86 83.87 61.93 83.86 56.62C83.86 50.43 81.73 44.33 78.12 39.17C81.66 46.65 81.5 55.9 77.67 63.98C75.06 69.49 71.07 73.99 66.15 77.01C64.65 77.93 62.81 78.81 60.77 79.58H60.76ZM52.87 74.78C53.78 75.61 54.74 76.38 55.74 77.08C56.6 77.68 57.44 78.19 58.26 78.59C60.91 77.74 63.31 76.65 65.15 75.52C69.71 72.73 73.56 68.37 75.99 63.25C79.66 55.52 79.77 46.69 76.31 39.61C73.19 33.25 65.89 25.95 55.88 26.06C54.58 26.29 53.23 26.53 51.9 26.83C51.84 26.85 51.78 26.88 51.72 26.9C52.81 27.12 53.91 27.43 55 27.85C60.47 29.95 64.64 34.33 67.05 40.52C70.34 48.94 69.89 59.96 65.96 67.33C64.32 70.4 62.5 72.36 60.24 73.51C58.42 74.43 56.11 74.84 53.47 74.8C53.27 74.8 53.07 74.79 52.88 74.78H52.87ZM35.82 69.49C38.15 73.65 43.83 77.46 54.42 78.33C52.83 77.2 51.36 75.91 50.01 74.47C45.1 73.67 40.4 71.55 35.82 69.49ZM50.94 72.84C51.79 72.96 52.65 73.03 53.5 73.05C55.85 73.1 57.83 72.74 59.38 71.96C61.3 70.99 62.87 69.27 64.32 66.54C68.04 59.58 68.45 49.14 65.33 41.15C63.77 37.17 60.6 31.92 54.31 29.5C52.57 28.83 50.82 28.46 49.08 28.34C46.54 30.19 44.78 33.54 43.74 38.52C42.13 46.21 42.19 53.35 43.92 59.72C45.28 64.74 47.71 69.24 50.94 72.84ZM34.85 67.11C35.4 67.36 35.95 67.6 36.49 67.85C40.29 69.57 44.18 71.33 48.14 72.29C45.43 68.81 43.37 64.68 42.15 60.16C40.35 53.53 40.28 46.13 41.95 38.17C42.72 34.5 43.87 31.62 45.44 29.49C44.99 29.83 44.56 30.2 44.18 30.61C40.48 34.56 37.78 39.58 36.16 45.52C35.3 48.65 34.74 52.01 34.45 55.8C34.28 57.98 34.37 60.05 34.45 62.23C34.49 63.13 34.53 64.03 34.55 64.94C34.56 65.65 34.66 66.38 34.86 67.11H34.85ZM28.08 64.36C29.67 64.9 31.24 65.54 32.8 66.21C32.74 65.8 32.71 65.39 32.7 64.98C32.68 64.08 32.64 63.19 32.61 62.3C32.52 60.16 32.43 57.94 32.61 55.66C32.91 51.77 33.49 48.3 34.38 45.07C36.08 38.85 38.92 33.59 42.81 29.43C43 29.23 43.2 29.03 43.4 28.84C37.1 30.39 31.59 35 28.69 40.47C25.31 46.83 24.78 54.97 27.25 62.26C27.49 62.97 27.77 63.67 28.08 64.35V64.36Z" fill="#37CCDC"/>
</svg>
